<svg viewBox="0 0 1303 400" xmlns="http://www.w3.org/2000/svg"><g><g><g><g><g><line x1="51.5625" y1="377" x2="46.5625" y2="377" style="visibility: inherit;" fill="rgb(0, 0, 0)" stroke="rgb(204, 204, 204)" stroke-width="1px"></line><line x1="51.5625" y1="345.5833333333333" x2="46.5625" y2="345.5833333333333" style="visibility: inherit;" fill="rgb(0, 0, 0)" stroke="rgb(204, 204, 204)" stroke-width="1px"></line><line x1="51.5625" y1="314.1666666666667" x2="46.5625" y2="314.1666666666667" style="visibility: inherit;" fill="rgb(0, 0, 0)" stroke="rgb(204, 204, 204)" stroke-width="1px"></line><line x1="51.5625" y1="282.75" x2="46.5625" y2="282.75" style="visibility: inherit;" fill="rgb(0, 0, 0)" stroke="rgb(204, 204, 204)" stroke-width="1px"></line><line x1="51.5625" y1="251.33333333333337" x2="46.5625" y2="251.33333333333337" style="visibility: inherit;" fill="rgb(0, 0, 0)" stroke="rgb(204, 204, 204)" stroke-width="1px"></line><line x1="51.5625" y1="219.91666666666663" x2="46.5625" y2="219.91666666666663" style="visibility: inherit;" fill="rgb(0, 0, 0)" stroke="rgb(204, 204, 204)" stroke-width="1px"></line><line x1="51.5625" y1="188.5" x2="46.5625" y2="188.5" style="visibility: inherit;" fill="rgb(0, 0, 0)" stroke="rgb(204, 204, 204)" stroke-width="1px"></line><line x1="51.5625" y1="157.08333333333331" x2="46.5625" y2="157.08333333333331" style="visibility: inherit;" fill="rgb(0, 0, 0)" stroke="rgb(204, 204, 204)" stroke-width="1px"></line><line x1="51.5625" y1="125.66666666666669" x2="46.5625" y2="125.66666666666669" style="visibility: inherit;" fill="rgb(0, 0, 0)" stroke="rgb(204, 204, 204)" stroke-width="1px"></line><line x1="51.5625" y1="94.25" x2="46.5625" y2="94.25" style="visibility: inherit;" fill="rgb(0, 0, 0)" stroke="rgb(204, 204, 204)" stroke-width="1px"></line><line x1="51.5625" y1="62.83333333333332" x2="46.5625" y2="62.83333333333332" style="visibility: inherit;" fill="rgb(0, 0, 0)" stroke="rgb(204, 204, 204)" stroke-width="1px"></line><line x1="51.5625" y1="31.416666666666682" x2="46.5625" y2="31.416666666666682" style="visibility: inherit;" fill="rgb(0, 0, 0)" stroke="rgb(204, 204, 204)" stroke-width="1px"></line><line x1="51.5625" y1="0" x2="46.5625" y2="0" style="visibility: inherit;" fill="rgb(0, 0, 0)" stroke="rgb(204, 204, 204)" stroke-width="1px"></line></g><g transform="translate(41.5625, 0)"><text x="0" y="377" dx="0em" dy="0.3em" style="text-anchor: end; visibility: hidden; font-family: Roboto, sans-serif; font-size: 12px; font-weight: 200;" fill="rgb(255, 255, 255)" stroke="none" stroke-width="1px">1.88</text><text x="0" y="345.5833333333333" dx="0em" dy="0.3em" style="text-anchor: end; visibility: inherit; font-family: Roboto, sans-serif; font-size: 12px; font-weight: 200;" fill="rgb(255, 255, 255)" stroke="none" stroke-width="1px">1.89</text><text x="0" y="314.1666666666667" dx="0em" dy="0.3em" style="text-anchor: end; visibility: inherit; font-family: Roboto, sans-serif; font-size: 12px; font-weight: 200;" fill="rgb(255, 255, 255)" stroke="none" stroke-width="1px">1.9</text><text x="0" y="282.75" dx="0em" dy="0.3em" style="text-anchor: end; visibility: inherit; font-family: Roboto, sans-serif; font-size: 12px; font-weight: 200;" fill="rgb(255, 255, 255)" stroke="none" stroke-width="1px">1.91</text><text x="0" y="251.33333333333337" dx="0em" dy="0.3em" style="text-anchor: end; visibility: inherit; font-family: Roboto, sans-serif; font-size: 12px; font-weight: 200;" fill="rgb(255, 255, 255)" stroke="none" stroke-width="1px">1.92</text><text x="0" y="219.91666666666663" dx="0em" dy="0.3em" style="text-anchor: end; visibility: inherit; font-family: Roboto, sans-serif; font-size: 12px; font-weight: 200;" fill="rgb(255, 255, 255)" stroke="none" stroke-width="1px">1.93</text><text x="0" y="188.5" dx="0em" dy="0.3em" style="text-anchor: end; visibility: inherit; font-family: Roboto, sans-serif; font-size: 12px; font-weight: 200;" fill="rgb(255, 255, 255)" stroke="none" stroke-width="1px">1.94</text><text x="0" y="157.08333333333331" dx="0em" dy="0.3em" style="text-anchor: end; visibility: inherit; font-family: Roboto, sans-serif; font-size: 12px; font-weight: 200;" fill="rgb(255, 255, 255)" stroke="none" stroke-width="1px">1.95</text><text x="0" y="125.66666666666669" dx="0em" dy="0.3em" style="text-anchor: end; visibility: inherit; font-family: Roboto, sans-serif; font-size: 12px; font-weight: 200;" fill="rgb(255, 255, 255)" stroke="none" stroke-width="1px">1.96</text><text x="0" y="94.25" dx="0em" dy="0.3em" style="text-anchor: end; visibility: inherit; font-family: Roboto, sans-serif; font-size: 12px; font-weight: 200;" fill="rgb(255, 255, 255)" stroke="none" stroke-width="1px">1.97</text><text x="0" y="62.83333333333332" dx="0em" dy="0.3em" style="text-anchor: end; visibility: inherit; font-family: Roboto, sans-serif; font-size: 12px; font-weight: 200;" fill="rgb(255, 255, 255)" stroke="none" stroke-width="1px">1.98</text><text x="0" y="31.416666666666682" dx="0em" dy="0.3em" style="text-anchor: end; visibility: inherit; font-family: Roboto, sans-serif; font-size: 12px; font-weight: 200;" fill="rgb(255, 255, 255)" stroke="none" stroke-width="1px">1.99</text><text x="0" y="0" dx="0em" dy="0.3em" style="text-anchor: end; visibility: hidden; font-family: Roboto, sans-serif; font-size: 12px; font-weight: 200;" fill="rgb(255, 255, 255)" stroke="none" stroke-width="1px">2</text></g><line x1="51.5625" y1="0" x2="51.5625" y2="377" fill="rgb(0, 0, 0)" stroke="rgb(204, 204, 204)" stroke-width="1px"></line></g></g><g transform="translate(51, 0)" clip-path="url(#clip_0)"><clipPath id="clip_0"><rect width="1251" height="377"></rect></clipPath><g><g><g><line x1="0" y1="0" x2="0" y2="377" fill="rgb(0, 0, 0)" stroke="rgb(189, 189, 189)" stroke-width="1px" opacity="0.25"></line><line x1="96.26442307692308" y1="0" x2="96.26442307692308" y2="377" fill="rgb(0, 0, 0)" stroke="rgb(189, 189, 189)" stroke-width="1px" opacity="0.25"></line><line x1="192.52884615384616" y1="0" x2="192.52884615384616" y2="377" fill="rgb(0, 0, 0)" stroke="rgb(189, 189, 189)" stroke-width="1px" opacity="0.25"></line><line x1="288.7932692307692" y1="0" x2="288.7932692307692" y2="377" fill="rgb(0, 0, 0)" stroke="rgb(189, 189, 189)" stroke-width="1px" opacity="0.25"></line><line x1="385.0576923076923" y1="0" x2="385.0576923076923" y2="377" fill="rgb(0, 0, 0)" stroke="rgb(189, 189, 189)" stroke-width="1px" opacity="0.25"></line><line x1="481.3221153846154" y1="0" x2="481.3221153846154" y2="377" fill="rgb(0, 0, 0)" stroke="rgb(189, 189, 189)" stroke-width="1px" opacity="0.25"></line><line x1="577.5865384615385" y1="0" x2="577.5865384615385" y2="377" fill="rgb(0, 0, 0)" stroke="rgb(189, 189, 189)" stroke-width="1px" opacity="0.25"></line><line x1="673.8509615384615" y1="0" x2="673.8509615384615" y2="377" fill="rgb(0, 0, 0)" stroke="rgb(189, 189, 189)" stroke-width="1px" opacity="0.25"></line><line x1="770.1153846153846" y1="0" x2="770.1153846153846" y2="377" fill="rgb(0, 0, 0)" stroke="rgb(189, 189, 189)" stroke-width="1px" opacity="0.25"></line><line x1="866.3798076923076" y1="0" x2="866.3798076923076" y2="377" fill="rgb(0, 0, 0)" stroke="rgb(189, 189, 189)" stroke-width="1px" opacity="0.25"></line><line x1="962.6442307692308" y1="0" x2="962.6442307692308" y2="377" fill="rgb(0, 0, 0)" stroke="rgb(189, 189, 189)" stroke-width="1px" opacity="0.25"></line><line x1="1058.9086538461538" y1="0" x2="1058.9086538461538" y2="377" fill="rgb(0, 0, 0)" stroke="rgb(189, 189, 189)" stroke-width="1px" opacity="0.25"></line><line x1="1155.173076923077" y1="0" x2="1155.173076923077" y2="377" fill="rgb(0, 0, 0)" stroke="rgb(189, 189, 189)" stroke-width="1px" opacity="0.25"></line><line x1="1251.4375" y1="0" x2="1251.4375" y2="377" fill="rgb(0, 0, 0)" stroke="rgb(189, 189, 189)" stroke-width="1px" opacity="0.25"></line></g><g><line x1="0" y1="377" x2="1251.4375" y2="377" fill="rgb(0, 0, 0)" stroke="rgb(189, 189, 189)" stroke-width="1px" opacity="0.25"></line><line x1="0" y1="345.5833333333333" x2="1251.4375" y2="345.5833333333333" fill="rgb(0, 0, 0)" stroke="rgb(189, 189, 189)" stroke-width="1px" opacity="0.25"></line><line x1="0" y1="314.1666666666667" x2="1251.4375" y2="314.1666666666667" fill="rgb(0, 0, 0)" stroke="rgb(189, 189, 189)" stroke-width="1px" opacity="0.25"></line><line x1="0" y1="282.75" x2="1251.4375" y2="282.75" fill="rgb(0, 0, 0)" stroke="rgb(189, 189, 189)" stroke-width="1px" opacity="0.25"></line><line x1="0" y1="251.33333333333337" x2="1251.4375" y2="251.33333333333337" fill="rgb(0, 0, 0)" stroke="rgb(189, 189, 189)" stroke-width="1px" opacity="0.25"></line><line x1="0" y1="219.91666666666663" x2="1251.4375" y2="219.91666666666663" fill="rgb(0, 0, 0)" stroke="rgb(189, 189, 189)" stroke-width="1px" opacity="0.25"></line><line x1="0" y1="188.5" x2="1251.4375" y2="188.5" fill="rgb(0, 0, 0)" stroke="rgb(189, 189, 189)" stroke-width="1px" opacity="0.25"></line><line x1="0" y1="157.08333333333331" x2="1251.4375" y2="157.08333333333331" fill="rgb(0, 0, 0)" stroke="rgb(189, 189, 189)" stroke-width="1px" opacity="0.25"></line><line x1="0" y1="125.66666666666669" x2="1251.4375" y2="125.66666666666669" fill="rgb(0, 0, 0)" stroke="rgb(189, 189, 189)" stroke-width="1px" opacity="0.25"></line><line x1="0" y1="94.25" x2="1251.4375" y2="94.25" fill="rgb(0, 0, 0)" stroke="rgb(189, 189, 189)" stroke-width="1px" opacity="0.25"></line><line x1="0" y1="62.83333333333332" x2="1251.4375" y2="62.83333333333332" fill="rgb(0, 0, 0)" stroke="rgb(189, 189, 189)" stroke-width="1px" opacity="0.25"></line><line x1="0" y1="31.416666666666682" x2="1251.4375" y2="31.416666666666682" fill="rgb(0, 0, 0)" stroke="rgb(189, 189, 189)" stroke-width="1px" opacity="0.25"></line><line x1="0" y1="0" x2="1251.4375" y2="0" fill="rgb(0, 0, 0)" stroke="rgb(189, 189, 189)" stroke-width="1px" opacity="0.25"></line></g></g></g><g><g><line x1="0" y1="6283.333333333327" x2="1251.4375" y2="6283.333333333327" fill="rgb(0, 0, 0)" stroke="rgb(153, 153, 153)" stroke-width="1.5px"></line></g></g><g><g><line x1="96.26442307692308" y1="0" x2="96.26442307692308" y2="377" fill="rgb(0, 0, 0)" stroke="rgb(153, 153, 153)" stroke-width="1.5px"></line></g></g><g><g><g><g><g><path stroke="rgb(255, 112, 67)" stroke-width="2px" d="M967.457451923077,-93.91605914123933L967.9387740384615,15.442691583156913L968.4200961538462,51.93895905648712L968.9014182692308,-133.19413169944178L969.3827403846153,28.145782283797374L969.8640625,41.808287043709406L970.3453846153845,135.12563536985945L970.8267067307693,155.75519336649276L971.3080288461539,222.60339031995682L971.7893509615384,178.56695666563914L972.2706730769231,134.4381256915518L972.7519951923076,113.48823138557239L973.2333173076923,110.51434423957075L973.714639423077,50.29484633178461L974.1959615384615,62.51875597024865L974.6772836538462,-13.32585563668892L975.1586057692308,38.13631191844672L975.6399278846154,101.55484239049431L976.12125,171.41284004386728L976.6025721153845,164.56192374617217L977.0838942307693,197.84813126162388L977.5652163461539,188.6843191016084L978.0465384615385,241.53110795657L978.5278605769231,102.21906305627816L979.0091826923076,125.24691233409898L979.4905048076923,56.58534397905515L979.971826923077,41.0198185447925L980.4531490384614,90.80577021483565L980.9344711538462,107.06174250616498L981.4157932692307,143.54092684154347L981.8971153846154,102.7517116402331L982.3784375,52.161694144001764L982.8597596153845,-3.234843073887041L983.3410817307692,127.67738243914572L983.8224038461539,196.03803639352992L984.3037259615385,245.1964033733911L984.7850480769231,389.74613863889584L985.2663701923076,321.754043809229L985.7476923076923,185.75116486012385L986.2290144230769,165.2211381434609L986.7103365384615,56.34080132468315L987.1916586538462,61.2698254622475L987.6729807692307,137.44838462102035L988.1543028846154,89.45225333666336L988.635625,212.3358912596997L989.1169471153846,94.75963199117221L989.5982692307692,169.79403029270404L990.079591346154,132.24560894799671L990.5609134615385,51.97505043883381L991.0422355769231,142.81457317037982L991.5235576923077,187.83599487243328L992.0048798076923,259.94160503922825L992.486201923077,315.58991073039556L992.9675240384615,90.15338618636513L993.4488461538461,105.41882991242646L993.9301682692308,127.87415790228997L994.4114903846154,153.23388859233555L994.8928125000001,54.49683756391926L995.3741346153846,167.52246076322035L995.8554567307692,194.9498954680939L996.3367788461538,257.6717974702942L996.8181009615384,279.03926582895264L997.2994230769231,277.13992562947135L997.7807451923077,128.71791819964326L998.2620673076923,160.38046062132372L998.743389423077,90.36156046474339L999.2247115384615,111.73253401965485L999.7060336538461,223.2773467591441L1000.1873557692307,127.6898219997303L1000.6686778846154,113.7047446656986L1001.1500000000001,169.3491675588739L1001.6313221153846,227.87062872250334L1002.1126442307692,126.40072037060747L1002.5939663461538,142.2197715199768L1003.0752884615384,18.783691868589734L1003.5566105769232,101.32360021992842L1004.0379326923077,164.2153642220752L1004.5192548076923,266.17614596943764L1005.0005769230769,164.5397883844022L1005.4818990384615,58.71119869897591L1005.9632211538462,95.83986266344677L1006.4445432692307,37.96917079224127L1006.9258653846153,51.84123602509882L1007.4071875000001,46.033093255760456L1007.8885096153846,81.61335682193491L1008.3698317307693,76.25883437387179L1008.8511538461538,85.358704033645L1009.3324759615384,38.06342417189586L1009.8137980769231,102.91343848420667L1010.2951201923076,-35.34142621052247L1011.2577644230769,-7.698169084082664L1011.7390865384615,54.14023872314426L1012.2204086538462,46.06663471121763L1012.7017307692307,108.5989226042774L1013.1830528846154,107.76083126502512L1013.6643750000001,104.92054813009874L1014.1456971153846,143.96639938892386L1014.6270192307693,112.2332680766272L1015.1083413461538,30.31652223335633L1015.5896634615385,55.91774136583122L1016.0709855769231,128.90208095765158L1016.5523076923076,178.47580868277595L1017.0336298076924,201.7055667933245L1017.5149519230769,269.4776783881436L1017.9962740384615,156.0664723613572L1018.4775961538462,296.10854567877743L1018.9589182692307,128.68804165795837L1019.4402403846154,218.68603803162992L1019.9215624999999,141.16550511585834L1020.4028846153846,133.5514503308169L1020.8842067307693,128.7190586877684L1021.3655288461538,154.62693356789023L1021.8468509615385,155.25259484837542L1022.3281730769231,190.95007961982475L1022.8094951923076,124.28798508243158L1023.2908173076924,129.047469883738L1023.7721394230769,195.55752272779426L1024.2534615384616,178.6745174450161L1024.7347836538463,109.07369437153048L1025.2161057692308,83.68448684017801L1025.6974278846153,142.20002454162167L1026.17875,198.09677458787283L1026.6600721153845,227.38466892829123L1027.1413942307693,266.55618409826656L1027.6227163461538,193.06053634791178L1028.1040384615385,269.6308067419639L1028.5853605769232,247.875933109433L1029.0666826923077,368.74373530867297L1029.5480048076925,352.39959503525074L1030.029326923077,257.6174116848717L1030.5106490384615,224.03384944113915L1030.9919711538462,131.58507486370883L1031.4732932692307,218.9769788991668L1031.9546153846154,205.25419579414086L1032.4359375,280.32393693805216L1032.9172596153846,176.61138121215774L1033.3985817307694,166.30747443792168L1033.8799038461539,116.4260216138175L1034.3612259615386,73.71417488146344L1034.842548076923,106.95691390130015L1035.3238701923076,146.38307422375598L1035.8051923076923,231.21308841293606L1036.2865144230768,176.8615064500905L1036.7678365384616,253.2417109099505L1037.2491586538463,228.0584822388969L1037.7304807692308,286.61071957901L1038.2118028846155,270.19729555699104L1038.693125,205.83201730878898L1039.1744471153845,191.04584068833805L1039.6557692307692,188.2409918950741L1040.1370913461537,267.341601171895L1040.6184134615385,199.45423045881842L1041.099735576923,270.5579338816496L1041.5810576923077,274.29687331205724L1042.0623798076924,190.05029529384444L1042.543701923077,197.98224963775257L1043.0250240384617,154.9064600350312L1043.5063461538462,192.63849758397663L1043.9876682692307,116.33497657353372L1044.4689903846154,213.21748683040187L1044.9503124999999,141.9782820692751L1045.4316346153846,70.59283554659861L1045.9129567307693,83.88965904776212L1046.3942788461538,21.822053472582123L1046.8756009615386,138.6502704702118L1047.356923076923,119.88058139973658L1047.8382451923078,58.46435417787512L1048.3195673076923,110.5132956706855L1048.8008894230768,148.67285168588378L1049.2822115384615,139.3677123969007L1049.763533653846,192.07592379561333L1050.2448557692308,177.05999476618325L1050.7261778846155,75.48405088726793L1051.2075,41.599801526928616L1051.6888221153847,74.51746623504053L1052.1701442307692,148.99621622237333L1052.651466346154,217.34537770235215L1053.1327884615384,207.20275058279663L1053.614110576923,208.02055009561877L1054.0954326923077,151.3514221212753L1054.5767548076924,258.0255894165129L1055.058076923077,324.12752836749326L1055.5393990384616,196.41471145434457L1056.0207211538461,137.82939734786714L1056.5020432692309,279.9729642633396L1056.9833653846154,233.34338609559092L1057.4646874999999,118.21610020110703L1057.9460096153846,118.75773123806515L1058.427331730769,70.55144778036542L1058.9086538461538,229.0370575853791L1059.3899759615385,135.50471339237356L1059.871298076923,161.4092219289844L1060.3526201923078,156.6617068698034L1060.8339423076923,262.71416805486007L1061.315264423077,209.11034859597754L1061.7965865384615,307.9438145004515L1062.277908653846,118.937188091445L1062.7592307692307,153.23941769355608L1063.2405528846155,171.4518677919352L1063.721875,82.11245606715916L1064.2031971153847,77.03542711561197L1064.6845192307692,115.94262521798585L1065.165841346154,93.8686577558627L1065.6471634615384,79.26193841775927L1066.1284855769231,223.7403553832418L1066.6098076923076,117.88895619564329L1067.0911298076921,165.53157503994117L1067.5724519230769,93.46780897532987L1068.0537740384616,148.80257082793148L1068.535096153846,130.96455752539464L1069.0164182692308,138.98874056153159L1069.4977403846156,125.30141829537942L1069.9790625,196.14422773771034L1070.4603846153846,260.2882408427352L1070.9417067307693,255.0816820061494L1071.4230288461538,194.6105312901511L1071.9043509615385,63.35616379565689L1072.385673076923,136.3771406983531L1072.8669951923077,19.86698119889837L1073.3483173076922,28.247282161620657L1073.829639423077,141.30650754032976L1074.3109615384617,109.97578816766648L1074.7922836538462,168.9794293075107L1075.2736057692307,116.37683059946512L1075.7549278846154,132.09624973640368L1076.23625,154.43221939229292L1076.7175721153847,115.93953656727041L1077.1988942307692,149.19073554420783L1077.6802163461539,134.54293155199812L1078.1615384615386,242.02883726473524L1078.642860576923,266.8637960321658L1079.1241826923076,237.33940139414594L1079.6055048076923,261.49338969589326L1080.0868269230768,238.46139166157127L1080.5681490384616,337.21821220755936L1081.049471153846,323.73488453253333L1081.5307932692308,366.4226458900618L1082.0121153846153,310.6482144057821L1082.4934375,360.1937955137137L1082.9747596153848,244.75760174886602L1083.4560817307693,275.4615067229443L1083.9374038461538,282.6300977936847L1084.4187259615385,155.98073637116744L1084.900048076923,175.79332293448118L1085.3813701923077,298.5992870810266L1085.8626923076922,238.46101137494807L1086.344014423077,167.60230167207618L1086.8253365384617,244.24588543274476L1087.3066586538462,230.32073495049326L1087.787980769231,277.8955422873844L1088.2693028846154,220.33833362870672L1088.750625,289.5134399228096L1089.2319471153846,308.3818668063167L1089.7132692307691,286.1906453332707L1090.1945913461539,323.8623506443544L1090.6759134615384,441.92407130898096L1091.157235576923,277.7796717466972L1091.6385576923078,291.57303404701054L1092.1198798076923,193.17630071575792L1092.601201923077,171.74070083579613L1093.0825240384615,278.0627187300586L1093.563846153846,251.0171097244143L1094.0451682692308,188.1410985226623L1094.5264903846153,282.3873874963433L1095.0078125,314.62923193501086L1095.4891346153847,291.0551216474775L1095.9704567307692,295.8965118490612L1096.451778846154,351.77047108190914L1096.9331009615385,354.55892992761306L1097.414423076923,293.09522417831386L1097.8957451923077,363.021281407165L1098.3770673076922,298.2861882721712L1098.858389423077,309.46936446082515L1099.3397115384616,266.33121036083605L1099.8210336538461,223.06044576123006L1100.3023557692309,187.72310621075627L1100.7836778846154,189.3189804148641L1101.265,234.26159400097265L1101.7463221153846,230.40930139036013L1102.227644230769,283.1229931533993L1102.7089663461538,301.4943957182163L1103.1902884615383,198.47985703860073L1103.671610576923,235.9311671998955L1104.1529326923078,293.56884193103656L1104.6342548076923,337.87253001340827L1105.115576923077,325.5301119824758L1105.5968990384615,250.3286033038601L1106.0782211538462,299.09762357657905L1106.5595432692307,291.9760192333803L1107.0408653846152,269.51117385819407L1107.5221875,281.1618308388879L1108.0035096153847,347.19839414936484L1108.4848317307692,303.4938509522806L1108.966153846154,294.09542572054863L1109.4474759615384,263.4162407610034L1109.9287980769232,383.07699450810065L1110.4101201923077,340.4943582750916L1110.8914423076924,275.02932651862835L1111.372764423077,263.9278314750905L1111.8540865384614,235.90020590473281L1112.3354086538461,217.22048910527846L1112.8167307692308,192.19197546682395L1113.2980528846153,149.22220259055447L1113.779375,126.93427214510221L1114.2606971153846,140.6899440854014L1114.7420192307693,225.4310191811652L1115.2233413461538,153.0557545706549L1115.7046634615383,229.8847893487367L1116.185985576923,257.10915801590346L1116.6673076923078,120.9239964346033L1117.1486298076923,97.46988880594249L1117.629951923077,209.35699225242683L1118.1112740384615,194.54548566009046L1118.5925961538462,185.43432161290664L1119.0739182692307,247.91363719152923L1119.5552403846154,311.182747938519L1120.0365625,290.08740901447453L1120.5178846153844,344.22765445409544L1120.9992067307692,359.5609232089817L1121.480528846154,343.09441433162846L1121.9618509615384,298.03893160310264L1122.4431730769231,226.63734828325204L1122.9244951923079,231.33174781933647L1123.4058173076924,377.9648713564982L1123.8871394230769,330.7590543605544L1124.3684615384616,314.8127138243706L1124.849783653846,359.515102682109L1125.3311057692308,257.437318152743L1125.8124278846153,230.17062043342418L1126.29375,223.69797008351546L1126.7750721153845,315.6579298403827L1127.2563942307693,323.3512879983768L1127.737716346154,399.32650456286603L1128.2190384615385,281.07952552710276L1128.700360576923,216.78858207270088L1129.1816826923077,223.31516230069352L1129.6630048076922,305.28111269451756L1130.144326923077,350.8131981514548L1130.6256490384615,324.91479559477045L1131.1069711538462,315.22209630649854L1131.588293269231,304.35605557506244L1132.0696153846154,297.90459302114425L1132.5509375000001,304.3212165060454L1133.0322596153846,253.94339261191004L1133.5135817307691,179.57551100494598L1133.9949038461539,312.7476435024066L1134.4762259615384,271.6337657641481L1134.957548076923,290.26905914174125L1135.4388701923076,257.18830398734383L1135.9201923076923,309.2710131725626L1136.401514423077,246.8522767814569L1136.8828365384616,309.6204281206467L1137.364158653846,302.96590687963567L1137.8454807692308,319.4040824699397L1138.3268028846153,300.61697461573243L1138.808125,217.28426475346888L1139.2894471153845,271.20170191340117L1139.7707692307692,239.0540929361927L1140.252091346154,335.61646332689617L1140.7334134615385,266.17220594693276L1141.2147355769232,275.9994837892594L1141.6960576923077,264.16132648304387L1142.1773798076922,230.71139176397628L1142.658701923077,217.33612648472703L1143.1400240384614,216.8923665989962L1143.6213461538462,255.2439381624974L1144.1026682692307,150.30573506826417L1144.5839903846154,128.22106857900428L1145.0653125000001,166.66903602960502L1145.5466346153846,307.517059492366L1146.0279567307693,286.7894660516354L1146.5092788461538,297.2603967438399L1146.9906009615383,293.4931968043399L1147.471923076923,136.15155544222338L1147.9532451923076,205.10948614085257L1148.4345673076923,169.61501587910203L1148.915889423077,287.51044561157187L1149.3972115384615,336.59139925056394L1149.8785336538463,291.4635287949268L1150.3598557692308,295.12257340920894L1150.8411778846155,226.98197581394297L1151.3225,232.45473991646628L1151.8038221153845,318.28633600958756L1152.2851442307692,384.38736709647486L1154.2104326923077,445.62446285133586L1154.6917548076924,328.33072786834845L1155.173076923077,293.7504123368287" style="fill: none;" fill="none"></path></g></g></g></g><g opacity="0.2"><g><g><g><path stroke="rgb(255, 112, 67)" stroke-width="2px" d="M963.6068750000001,-4.4365147749582645L964.0881971153846,70.8853642145792L964.5695192307692,-78.20864717165627L965.0508413461539,284.065779050191L965.5321634615384,-156.5611084302265L966.0134855769231,17.161065340042114L966.4948076923077,-56.936146815617825L966.9761298076922,300.83173016707076L967.457451923077,-96.94417715072623L967.9387740384615,179.35227056344337L968.4200961538462,106.65762027104685L968.9014182692308,-410.8154257138566L969.3827403846153,270.1146890719729L969.8640625,62.29996283849075L970.3453846153845,275.0931282838183L970.8267067307693,186.69839898745204L971.3080288461539,322.87348608175887L971.7893509615384,112.51317560672751L972.2706730769231,68.2454019784927L972.7519951923076,82.06353882948551L973.2333173076923,106.05352620283752L973.714639423077,-40.03424644470215L974.1959615384615,80.85460166136417L974.6772836538462,-127.09270318349189L975.1586057692308,115.32953480879455L975.6399278846154,196.68261706829054L976.12125,276.1998226245242L976.6025721153845,154.28555011749256L977.0838942307693,247.7774401505786L977.5652163461539,174.9386012554167L978.0465384615385,320.8012898763018L978.5278605769231,-106.74900213877349L979.0091826923076,159.78868603706348L979.4905048076923,-46.40700817108154L979.971826923077,17.671530445416753L980.4531490384614,165.4846976200738L980.9344711538462,131.44570092360166L981.4157932692307,198.2597033182778L981.8971153846154,41.5678888559341L982.3784375,-23.723332087198866L982.8597596153845,-86.32964889208465L983.3410817307692,324.045720696449L983.8224038461539,298.57901732126845L984.3037259615385,318.933953841527L984.7850480769231,606.5707415342326L985.2663701923076,219.7659015655516L985.7476923076923,-18.253153562545776L986.2290144230769,134.42609806855506L986.7103365384615,-106.97970390319816L987.1916586538462,68.66336166858669L987.6729807692307,251.71622335910772L988.1543028846154,17.45805641015369L988.635625,396.661348144213L989.1169471153846,-81.6047569115956L989.5982692307692,282.3456277449923L990.079591346154,75.92297693093612L990.5609134615385,-68.43078732490531L991.0422355769231,279.0738572676974L991.5235576923077,255.36812742551146L992.0048798076923,368.10002028942074L992.486201923077,399.0623692671454L992.9675240384615,-248.00140062967915L993.4488461538461,128.31699550151814L993.9301682692308,161.55714988708485L994.4114903846154,191.2734846274056L994.8928125000001,-93.60873897870376L995.3741346153846,337.06089556217165L995.8554567307692,236.09104752540568L996.3367788461538,351.7546504735943L996.8181009615384,311.09046836694057L997.2994230769231,274.2909153302508L997.7807451923077,-93.91509294509879L998.2620673076923,207.87427425384504L998.743389423077,-14.666789770126343L999.2247115384615,143.78899435202268L999.7060336538461,390.59456586837734L1000.1873557692307,-15.691465139389038L1000.6686778846154,92.72712866465244L1001.1500000000001,252.8158018986382L1001.6313221153846,315.65282046794863L1002.1126442307692,-25.804142157236708L1002.5939663461538,165.94834824403114L1003.0752884615384,-166.37042760848982L1003.5566105769232,225.13346274693785L1004.0379326923077,258.5530102252958L1004.5192548076923,419.11731859048166L1005.0005769230769,12.08525200684864L1005.4818990384615,-100.03168582916251L1005.9632211538462,151.53285861015308L1006.4445432692307,-48.83686701456703L1006.9258653846153,72.6493338743845L1007.4071875000001,37.32087910175319L1007.8885096153846,134.9837521711984L1008.3698317307693,68.22705070177707L1008.8511538461538,99.00850852330515L1009.3324759615384,-32.87949562072754L1009.8137980769231,200.18845995267213L1010.2951201923076,-242.72372325261412L1010.7764423076924,-55.42609890302017L1011.2577644230769,45.81752022107437L1011.7390865384615,146.89785043398527L1012.2204086538462,33.9562286933263L1012.7017307692307,202.3973544438678L1013.1830528846154,106.50369425614664L1013.6643750000001,100.66012342770884L1014.1456971153846,202.53517627716047L1014.6270192307693,64.63357110818221L1015.1083413461538,-92.55859653154998L1015.5896634615385,94.31957006454459L1016.0709855769231,238.3785903453825L1016.5523076923076,252.83640027046178L1017.0336298076924,236.55020395914693L1017.5149519230769,371.1358457803723L1017.9962740384615,-14.050336678822863L1018.9589182692307,-122.44271437327056L1019.4402403846154,353.68303259213735L1019.9215624999999,24.8847057422002L1020.4028846153846,122.13036815325408L1020.8842067307693,121.47047122319529L1021.3655288461538,193.48874588807405L1021.8468509615385,156.1910867691039L1022.3281730769231,244.49630677700023L1022.8094951923076,24.29484327634174L1023.2908173076924,136.1866970856983L1023.7721394230769,295.32260199387844L1024.2534615384616,153.35000952084846L1024.7347836538463,4.67245976130169L1025.2161057692308,45.60067554314926L1025.6974278846153,229.97333109378795L1026.17875,281.9418996572492L1026.6600721153845,271.31651043891884L1027.1413942307693,325.3134568532305L1027.6227163461538,82.81706472237899L1028.1040384615385,384.4862123330431L1028.5853605769232,215.24362266063673L1029.0666826923077,550.0454386075332L1029.5480048076925,327.8833846251167L1030.029326923077,115.44413665930419L1030.5106490384615,173.65850607554103L1030.9919711538462,-7.088087002436292L1031.4732932692307,350.06483495235415L1031.9546153846154,184.67002113660158L1032.4359375,392.9285486539201L1032.9172596153846,21.04254762331642L1033.3985817307694,150.85161427656794L1033.8799038461539,41.603842377662616L1034.3612259615386,9.646404782930983L1034.842548076923,156.82102243105555L1035.3238701923076,205.52231470743794L1035.8051923076923,358.45810969670583L1036.2865144230768,95.33413350582114L1036.7678365384616,367.8120175997413L1037.2491586538463,190.2836392323174L1037.7304807692308,374.43907558917965L1038.2118028846155,245.57715952396373L1038.693125,109.2840999364852L1039.1744471153845,168.8665757576623L1039.6557692307692,184.03371870517714L1040.1370913461537,385.99251508712734L1040.6184134615385,97.62317438920329L1041.099735576923,377.2134890158968L1041.5810576923077,279.90528245766933L1042.0623798076924,63.680428266525226L1042.543701923077,209.88018115361513L1043.0250240384617,90.29277563095084L1043.5063461538462,249.23655390739415L1043.9876682692307,1.8796950578689575L1044.4689903846154,358.541252215703L1044.9503124999999,35.1194749275843L1045.4316346153846,-36.48533423741653L1045.9129567307693,103.83489429950706L1046.3942788461538,-71.27935489018752L1046.8756009615386,313.89259596665676L1047.356923076923,91.72604779402408L1047.8382451923078,-33.65998665491737L1048.3195673076923,188.5867079099018L1048.8008894230768,205.91218570868153L1049.2822115384615,125.41000346342712L1049.763533653846,271.1382408936816L1050.2448557692308,154.53610122203816L1050.7261778846155,-76.87986493110648L1051.2075,-9.226572513580322L1051.6888221153847,123.89396329720805L1052.1701442307692,260.7143412033714L1052.651466346154,319.8691199223198L1053.1327884615384,191.9888099034626L1053.614110576923,209.24724936485273L1054.0954326923077,66.34773015975948L1054.5767548076924,418.03684035936953L1055.058076923077,423.28043679396274L1055.5393990384616,4.8454860846201715L1056.0207211538461,49.95142618815101L1056.5020432692309,493.18831463654794L1056.9833653846154,163.39901884396858L1057.4646874999999,-54.47482864061988L1057.9460096153846,119.57017779350268L1058.427331730769,-1.7579774061838507L1059.3899759615385,-4.7938028971353885L1059.871298076923,200.26598473389924L1060.3526201923078,149.54043428103114L1060.8339423076923,421.7928598324454L1061.315264423077,128.7046194076537L1061.7965865384615,456.1940133571621L1062.277908653846,-164.57275152206404L1062.7592307692307,204.69276209672273L1063.2405528846155,198.7705429395038L1063.721875,-51.89666152000419L1064.2031971153847,69.41988368829085L1064.6845192307692,174.30342237154628L1065.165841346154,60.75770656267795L1065.6471634615384,57.35185941060379L1066.1284855769231,440.4579808314637L1066.6098076923076,-40.888142585754395L1067.0911298076921,236.99550330638866L1067.5724519230769,-14.627840121587145L1068.0537740384616,231.8047136068342L1068.535096153846,104.20753757158904L1069.0164182692308,151.0250151157378L1069.4977403846156,104.77043489615112L1069.9790625,302.40844190120674L1070.4603846153846,356.5042605002718L1070.9417067307693,247.27184375127135L1071.4230288461538,103.90380521615336L1071.9043509615385,-133.5253874460855L1072.385673076923,245.90860605239848L1072.8669951923077,-154.89825805028266L1073.3483173076922,40.817733605702664L1073.829639423077,310.8953456083931L1074.3109615384617,62.9797091086705L1074.7922836538462,257.4848910172778L1075.2736057692307,37.47293253739674L1075.7549278846154,155.6753784418105L1076.23625,187.93617387612642L1076.7175721153847,58.20051232973728L1077.1988942307692,199.06753400961537L1077.6802163461539,112.57122556368499L1078.1615384615386,403.2576958338416L1078.642860576923,304.11623418331124L1079.1241826923076,193.0528094371158L1079.6055048076923,297.72437214851357L1080.0868269230768,203.91339461008687L1080.5681490384616,485.35344302654227L1081.049471153846,303.50989301999385L1081.5307932692308,430.4542879263556L1082.0121153846153,226.98656717936177L1082.4934375,434.51216717561044L1082.9747596153848,71.6033111015955L1083.4560817307693,321.5173641840614L1083.9374038461538,293.3829843997953L1084.4187259615385,-33.99330576260879L1084.900048076923,205.5122027794518L1085.3813701923077,482.8082333008444L1085.8626923076922,148.25359781583137L1086.344014423077,61.31423711776729L1086.8253365384617,359.21126107374795L1087.3066586538462,209.4330092271167L1087.787980769231,349.2577532927192L1088.2693028846154,134.002520640691L1088.750625,393.27609936396243L1089.2319471153846,336.68450713157625L1089.7132692307691,252.90381312370275L1090.1945913461539,380.36990861097934L1090.6759134615384,619.0166523059204L1091.157235576923,31.563072403271978L1091.6385576923078,312.263077497482L1092.1198798076923,45.58120071887966L1092.601201923077,139.58730101585377L1093.0825240384615,437.54574557145395L1093.563846153846,210.44869621594728L1094.0451682692308,93.82708172003422L1094.5264903846153,423.75682095686557L1095.0078125,362.99199859301217L1095.4891346153847,255.69395621617613L1095.9704567307692,303.15859715143813L1096.451778846154,435.58140993118246L1096.9331009615385,358.7416181961692L1097.414423076923,200.89966555436433L1097.8957451923077,467.9103672504421L1098.3770673076922,201.1835485696791L1098.858389423077,326.2441287438072L1099.3397115384616,201.6239792108534L1099.8210336538461,158.15429886182136L1100.3023557692309,134.71709688504524L1100.7836778846154,191.7127917210259L1101.265,301.67551438013686L1101.7463221153846,224.63086247444133L1102.227644230769,362.19353079795803L1102.7089663461538,329.0514995654421L1103.1902884615383,43.9580490191777L1103.671610576923,292.10813244183834L1104.1529326923078,380.02535402774777L1104.6342548076923,404.32806213696756L1105.115576923077,307.01648493607814L1105.5968990384615,137.52634028593687L1106.0782211538462,372.25115398565896L1106.5595432692307,281.2936127185819L1107.0408653846152,235.81390579541502L1107.5221875,298.63781630992867L1108.0035096153847,446.2532391150788L1108.4848317307692,237.93703615665416L1108.966153846154,279.99778787294997L1109.4474759615384,217.39746332168562L1109.9287980769232,562.5681251287456L1110.4101201923077,276.62040392557753L1110.8914423076924,176.83177888393385L1111.372764423077,247.27558890978474L1111.8540865384614,193.85876754919667L1112.3354086538461,189.20091390609724L1112.8167307692308,154.6492050091424L1113.2980528846153,84.76754327615096L1113.779375,93.50237647692356L1114.2606971153846,161.3234519958495L1114.7420192307693,352.542631824811L1115.2233413461538,44.49285765488937L1115.7046634615383,345.12834151585866L1116.185985576923,297.94571101665474L1116.6673076923078,-83.35374593734733L1117.1486298076923,62.28872736295059L1117.629951923077,377.18764742215444L1118.1112740384615,172.32822577158595L1118.5925961538462,171.7675755421319L1119.0739182692307,341.6326105594632L1119.5552403846154,406.0864140590028L1120.0365625,258.44440062840755L1120.5178846153844,425.43802261352505L1120.9992067307692,382.56082634131076L1121.480528846154,318.39465101559927L1121.9618509615384,230.45570751031218L1122.4431730769231,119.53497330347686L1122.9244951923079,238.37334712346373L1123.4058173076924,597.9145566622411L1123.8871394230769,259.95032886664046L1124.3684615384616,290.8932030200956L1124.849783653846,426.5686859687165L1125.3311057692308,104.32064135869334L1125.8124278846153,189.27057385444624L1126.29375,213.98899455865205L1126.7750721153845,453.59786947568216L1127.2563942307693,334.89132523536654L1127.737716346154,513.2893294095988L1128.2190384615385,103.70905697345725L1128.700360576923,120.3521668910979L1129.1816826923077,233.10503264268218L1129.6630048076922,428.2300382852551L1130.144326923077,419.1113263368603L1130.6256490384615,286.067191759745L1131.1069711538462,300.6830473740893L1131.588293269231,288.05699447790755L1132.0696153846154,288.2273991902667L1132.5509375000001,313.94615173339815L1133.0322596153846,178.376656770706L1133.5135817307691,68.02368859450016L1133.9949038461539,512.5058422485982L1134.4762259615384,209.962949156761L1134.957548076923,318.22199920813216L1135.4388701923076,207.56717125574727L1135.9201923076923,387.39507695039083L1136.401514423077,153.22417219479865L1136.8828365384616,403.77265512943234L1137.364158653846,292.9841250181196L1137.8454807692308,344.0613458553947L1138.3268028846153,272.4363128344215L1138.808125,92.28519996007273L1139.2894471153845,352.07785765329965L1139.7707692307692,190.83267947038001L1140.252091346154,480.4600189129507L1140.7334134615385,162.0058198769886L1141.2147355769232,290.7404005527494L1141.6960576923077,246.4040905237196L1142.1773798076922,180.53648968537635L1142.658701923077,197.27322856585164L1143.1400240384614,216.22672677040083L1143.6213461538462,312.7712955077487L1144.1026682692307,-7.101569573084485L1144.5839903846154,95.09406884511301L1145.0653125000001,224.34098720550517L1145.5466346153846,518.7890946865077L1146.0279567307693,255.69807589054082L1146.5092788461538,312.9667927821475L1146.9906009615383,287.8423968950905L1147.471923076923,-99.86090660095206L1147.9532451923076,308.54638218879677L1148.4345673076923,116.37331048647552L1148.915889423077,464.3535902102784L1149.3972115384615,410.2128297090527L1149.8785336538463,223.77172311147032L1150.3598557692308,300.6111403306323L1150.8411778846155,124.77107942104327L1151.3225,240.66388607025127L1151.8038221153845,447.0337301492687L1152.7664663461537,392.5839940706885L1153.2477884615384,367.99066166082986L1153.7291105769232,537.4875475962951L1154.2104326923077,449.7523407141363L1154.6917548076924,152.39012539386738L1155.173076923077,241.87993903954802" style="fill: none;" fill="none"></path></g></g></g></g></g><g><g opacity="0.166408"><span fill="rgb(0, 0, 0)" stroke="none" stroke-width="1px">Alt + Scroll to Zoom</span></g></g></g><g transform="translate(51, 377)" clip-path="url(#clip_1)"><clipPath id="clip_1"><rect width="1251" height="23"></rect></clipPath><g><g><line x1="0" y1="0" x2="0" y2="5" style="visibility: inherit;" fill="rgb(0, 0, 0)" stroke="rgb(204, 204, 204)" stroke-width="1px"></line><line x1="96.26442307692308" y1="0" x2="96.26442307692308" y2="5" style="visibility: inherit;" fill="rgb(0, 0, 0)" stroke="rgb(204, 204, 204)" stroke-width="1px"></line><line x1="192.52884615384616" y1="0" x2="192.52884615384616" y2="5" style="visibility: inherit;" fill="rgb(0, 0, 0)" stroke="rgb(204, 204, 204)" stroke-width="1px"></line><line x1="288.7932692307692" y1="0" x2="288.7932692307692" y2="5" style="visibility: inherit;" fill="rgb(0, 0, 0)" stroke="rgb(204, 204, 204)" stroke-width="1px"></line><line x1="385.0576923076923" y1="0" x2="385.0576923076923" y2="5" style="visibility: inherit;" fill="rgb(0, 0, 0)" stroke="rgb(204, 204, 204)" stroke-width="1px"></line><line x1="481.3221153846154" y1="0" x2="481.3221153846154" y2="5" style="visibility: inherit;" fill="rgb(0, 0, 0)" stroke="rgb(204, 204, 204)" stroke-width="1px"></line><line x1="577.5865384615385" y1="0" x2="577.5865384615385" y2="5" style="visibility: inherit;" fill="rgb(0, 0, 0)" stroke="rgb(204, 204, 204)" stroke-width="1px"></line><line x1="673.8509615384615" y1="0" x2="673.8509615384615" y2="5" style="visibility: inherit;" fill="rgb(0, 0, 0)" stroke="rgb(204, 204, 204)" stroke-width="1px"></line><line x1="770.1153846153846" y1="0" x2="770.1153846153846" y2="5" style="visibility: inherit;" fill="rgb(0, 0, 0)" stroke="rgb(204, 204, 204)" stroke-width="1px"></line><line x1="866.3798076923076" y1="0" x2="866.3798076923076" y2="5" style="visibility: inherit;" fill="rgb(0, 0, 0)" stroke="rgb(204, 204, 204)" stroke-width="1px"></line><line x1="962.6442307692308" y1="0" x2="962.6442307692308" y2="5" style="visibility: inherit;" fill="rgb(0, 0, 0)" stroke="rgb(204, 204, 204)" stroke-width="1px"></line><line x1="1058.9086538461538" y1="0" x2="1058.9086538461538" y2="5" style="visibility: inherit;" fill="rgb(0, 0, 0)" stroke="rgb(204, 204, 204)" stroke-width="1px"></line><line x1="1155.173076923077" y1="0" x2="1155.173076923077" y2="5" style="visibility: inherit;" fill="rgb(0, 0, 0)" stroke="rgb(204, 204, 204)" stroke-width="1px"></line><line x1="1251.4375" y1="0" x2="1251.4375" y2="5" style="visibility: inherit;" fill="rgb(0, 0, 0)" stroke="rgb(204, 204, 204)" stroke-width="1px"></line></g><g transform="translate(0, 8)"><text x="0" y="0" dx="0em" dy="0.95em" style="text-anchor: middle; visibility: hidden; font-family: Roboto, sans-serif; font-size: 12px; font-weight: 200;" fill="rgb(255, 255, 255)" stroke="none" stroke-width="1px">-200</text><text x="96.26442307692308" y="0" dx="0em" dy="0.95em" style="text-anchor: middle; visibility: inherit; font-family: Roboto, sans-serif; font-size: 12px; font-weight: 200;" fill="rgb(255, 255, 255)" stroke="none" stroke-width="1px">0</text><text x="192.52884615384616" y="0" dx="0em" dy="0.95em" style="text-anchor: middle; visibility: inherit; font-family: Roboto, sans-serif; font-size: 12px; font-weight: 200;" fill="rgb(255, 255, 255)" stroke="none" stroke-width="1px">200</text><text x="288.7932692307692" y="0" dx="0em" dy="0.95em" style="text-anchor: middle; visibility: inherit; font-family: Roboto, sans-serif; font-size: 12px; font-weight: 200;" fill="rgb(255, 255, 255)" stroke="none" stroke-width="1px">400</text><text x="385.0576923076923" y="0" dx="0em" dy="0.95em" style="text-anchor: middle; visibility: inherit; font-family: Roboto, sans-serif; font-size: 12px; font-weight: 200;" fill="rgb(255, 255, 255)" stroke="none" stroke-width="1px">600</text><text x="481.3221153846154" y="0" dx="0em" dy="0.95em" style="text-anchor: middle; visibility: inherit; font-family: Roboto, sans-serif; font-size: 12px; font-weight: 200;" fill="rgb(255, 255, 255)" stroke="none" stroke-width="1px">800</text><text x="577.5865384615385" y="0" dx="0em" dy="0.95em" style="text-anchor: middle; visibility: inherit; font-family: Roboto, sans-serif; font-size: 12px; font-weight: 200;" fill="rgb(255, 255, 255)" stroke="none" stroke-width="1px">1k</text><text x="673.8509615384615" y="0" dx="0em" dy="0.95em" style="text-anchor: middle; visibility: inherit; font-family: Roboto, sans-serif; font-size: 12px; font-weight: 200;" fill="rgb(255, 255, 255)" stroke="none" stroke-width="1px">1.2k</text><text x="770.1153846153846" y="0" dx="0em" dy="0.95em" style="text-anchor: middle; visibility: inherit; font-family: Roboto, sans-serif; font-size: 12px; font-weight: 200;" fill="rgb(255, 255, 255)" stroke="none" stroke-width="1px">1.4k</text><text x="866.3798076923076" y="0" dx="0em" dy="0.95em" style="text-anchor: middle; visibility: inherit; font-family: Roboto, sans-serif; font-size: 12px; font-weight: 200;" fill="rgb(255, 255, 255)" stroke="none" stroke-width="1px">1.6k</text><text x="962.6442307692308" y="0" dx="0em" dy="0.95em" style="text-anchor: middle; visibility: inherit; font-family: Roboto, sans-serif; font-size: 12px; font-weight: 200;" fill="rgb(255, 255, 255)" stroke="none" stroke-width="1px">1.8k</text><text x="1058.9086538461538" y="0" dx="0em" dy="0.95em" style="text-anchor: middle; visibility: inherit; font-family: Roboto, sans-serif; font-size: 12px; font-weight: 200;" fill="rgb(255, 255, 255)" stroke="none" stroke-width="1px">2k</text><text x="1155.173076923077" y="0" dx="0em" dy="0.95em" style="text-anchor: middle; visibility: inherit; font-family: Roboto, sans-serif; font-size: 12px; font-weight: 200;" fill="rgb(255, 255, 255)" stroke="none" stroke-width="1px">2.2k</text><text x="1251.4375" y="0" dx="0em" dy="0.95em" style="text-anchor: middle; visibility: hidden; font-family: Roboto, sans-serif; font-size: 12px; font-weight: 200;" fill="rgb(255, 255, 255)" stroke="none" stroke-width="1px">2.4k</text></g><line x1="0" y1="0" x2="1251.4375" y2="0" fill="rgb(0, 0, 0)" stroke="rgb(204, 204, 204)" stroke-width="1px"></line></g></g></g></g></svg>