<svg viewBox="0 0 330 200" xmlns="http://www.w3.org/2000/svg"><g><g><g><g><g><line x1="60" y1="177" x2="55" y2="177" style="visibility: inherit;" fill="rgb(0, 0, 0)" stroke="rgb(204, 204, 204)" stroke-width="1px"></line><line x1="60" y1="151.7142857142857" x2="55" y2="151.7142857142857" style="visibility: inherit;" fill="rgb(0, 0, 0)" stroke="rgb(204, 204, 204)" stroke-width="1px"></line><line x1="60" y1="126.42857142857136" x2="55" y2="126.42857142857136" style="visibility: inherit;" fill="rgb(0, 0, 0)" stroke="rgb(204, 204, 204)" stroke-width="1px"></line><line x1="60" y1="101.14285714285703" x2="55" y2="101.14285714285703" style="visibility: inherit;" fill="rgb(0, 0, 0)" stroke="rgb(204, 204, 204)" stroke-width="1px"></line><line x1="60" y1="75.8571428571427" x2="55" y2="75.8571428571427" style="visibility: inherit;" fill="rgb(0, 0, 0)" stroke="rgb(204, 204, 204)" stroke-width="1px"></line><line x1="60" y1="50.57142857142837" x2="55" y2="50.57142857142837" style="visibility: inherit;" fill="rgb(0, 0, 0)" stroke="rgb(204, 204, 204)" stroke-width="1px"></line><line x1="60" y1="25.285714285714334" x2="55" y2="25.285714285714334" style="visibility: inherit;" fill="rgb(0, 0, 0)" stroke="rgb(204, 204, 204)" stroke-width="1px"></line><line x1="60" y1="0" x2="55" y2="0" style="visibility: inherit;" fill="rgb(0, 0, 0)" stroke="rgb(204, 204, 204)" stroke-width="1px"></line></g><g transform="translate(50, 0)"><text x="0" y="177" dx="0em" dy="0.3em" style="text-anchor: end; visibility: hidden; font-family: Roboto, sans-serif; font-size: 12px; font-weight: 200;" fill="rgb(255, 255, 255)" stroke="none" stroke-width="1px">0.44</text><text x="0" y="151.7142857142857" dx="0em" dy="0.3em" style="text-anchor: end; visibility: inherit; font-family: Roboto, sans-serif; font-size: 12px; font-weight: 200;" fill="rgb(255, 255, 255)" stroke="none" stroke-width="1px">0.445</text><text x="0" y="126.42857142857136" dx="0em" dy="0.3em" style="text-anchor: end; visibility: inherit; font-family: Roboto, sans-serif; font-size: 12px; font-weight: 200;" fill="rgb(255, 255, 255)" stroke="none" stroke-width="1px">0.45</text><text x="0" y="101.14285714285703" dx="0em" dy="0.3em" style="text-anchor: end; visibility: inherit; font-family: Roboto, sans-serif; font-size: 12px; font-weight: 200;" fill="rgb(255, 255, 255)" stroke="none" stroke-width="1px">0.455</text><text x="0" y="75.8571428571427" dx="0em" dy="0.3em" style="text-anchor: end; visibility: inherit; font-family: Roboto, sans-serif; font-size: 12px; font-weight: 200;" fill="rgb(255, 255, 255)" stroke="none" stroke-width="1px">0.46</text><text x="0" y="50.57142857142837" dx="0em" dy="0.3em" style="text-anchor: end; visibility: inherit; font-family: Roboto, sans-serif; font-size: 12px; font-weight: 200;" fill="rgb(255, 255, 255)" stroke="none" stroke-width="1px">0.465</text><text x="0" y="25.285714285714334" dx="0em" dy="0.3em" style="text-anchor: end; visibility: inherit; font-family: Roboto, sans-serif; font-size: 12px; font-weight: 200;" fill="rgb(255, 255, 255)" stroke="none" stroke-width="1px">0.47</text><text x="0" y="0" dx="0em" dy="0.3em" style="text-anchor: end; visibility: hidden; font-family: Roboto, sans-serif; font-size: 12px; font-weight: 200;" fill="rgb(255, 255, 255)" stroke="none" stroke-width="1px">0.475</text></g><line x1="60" y1="0" x2="60" y2="177" fill="rgb(0, 0, 0)" stroke="rgb(204, 204, 204)" stroke-width="1px"></line></g></g><g transform="translate(60, 0)" clip-path="url(#clip_0)"><clipPath id="clip_0"><rect width="270" height="177"></rect></clipPath><g><g><g><line x1="0" y1="0" x2="0" y2="177" fill="rgb(0, 0, 0)" stroke="rgb(189, 189, 189)" stroke-width="1px" opacity="0.25"></line><line x1="20.76923076923077" y1="0" x2="20.76923076923077" y2="177" fill="rgb(0, 0, 0)" stroke="rgb(189, 189, 189)" stroke-width="1px" opacity="0.25"></line><line x1="41.53846153846154" y1="0" x2="41.53846153846154" y2="177" fill="rgb(0, 0, 0)" stroke="rgb(189, 189, 189)" stroke-width="1px" opacity="0.25"></line><line x1="62.307692307692314" y1="0" x2="62.307692307692314" y2="177" fill="rgb(0, 0, 0)" stroke="rgb(189, 189, 189)" stroke-width="1px" opacity="0.25"></line><line x1="83.07692307692308" y1="0" x2="83.07692307692308" y2="177" fill="rgb(0, 0, 0)" stroke="rgb(189, 189, 189)" stroke-width="1px" opacity="0.25"></line><line x1="103.84615384615385" y1="0" x2="103.84615384615385" y2="177" fill="rgb(0, 0, 0)" stroke="rgb(189, 189, 189)" stroke-width="1px" opacity="0.25"></line><line x1="124.61538461538463" y1="0" x2="124.61538461538463" y2="177" fill="rgb(0, 0, 0)" stroke="rgb(189, 189, 189)" stroke-width="1px" opacity="0.25"></line><line x1="145.3846153846154" y1="0" x2="145.3846153846154" y2="177" fill="rgb(0, 0, 0)" stroke="rgb(189, 189, 189)" stroke-width="1px" opacity="0.25"></line><line x1="166.15384615384616" y1="0" x2="166.15384615384616" y2="177" fill="rgb(0, 0, 0)" stroke="rgb(189, 189, 189)" stroke-width="1px" opacity="0.25"></line><line x1="186.9230769230769" y1="0" x2="186.9230769230769" y2="177" fill="rgb(0, 0, 0)" stroke="rgb(189, 189, 189)" stroke-width="1px" opacity="0.25"></line><line x1="207.6923076923077" y1="0" x2="207.6923076923077" y2="177" fill="rgb(0, 0, 0)" stroke="rgb(189, 189, 189)" stroke-width="1px" opacity="0.25"></line><line x1="228.46153846153845" y1="0" x2="228.46153846153845" y2="177" fill="rgb(0, 0, 0)" stroke="rgb(189, 189, 189)" stroke-width="1px" opacity="0.25"></line><line x1="249.23076923076925" y1="0" x2="249.23076923076925" y2="177" fill="rgb(0, 0, 0)" stroke="rgb(189, 189, 189)" stroke-width="1px" opacity="0.25"></line><line x1="270" y1="0" x2="270" y2="177" fill="rgb(0, 0, 0)" stroke="rgb(189, 189, 189)" stroke-width="1px" opacity="0.25"></line></g><g><line x1="0" y1="177" x2="270" y2="177" fill="rgb(0, 0, 0)" stroke="rgb(189, 189, 189)" stroke-width="1px" opacity="0.25"></line><line x1="0" y1="151.7142857142857" x2="270" y2="151.7142857142857" fill="rgb(0, 0, 0)" stroke="rgb(189, 189, 189)" stroke-width="1px" opacity="0.25"></line><line x1="0" y1="126.42857142857136" x2="270" y2="126.42857142857136" fill="rgb(0, 0, 0)" stroke="rgb(189, 189, 189)" stroke-width="1px" opacity="0.25"></line><line x1="0" y1="101.14285714285703" x2="270" y2="101.14285714285703" fill="rgb(0, 0, 0)" stroke="rgb(189, 189, 189)" stroke-width="1px" opacity="0.25"></line><line x1="0" y1="75.8571428571427" x2="270" y2="75.8571428571427" fill="rgb(0, 0, 0)" stroke="rgb(189, 189, 189)" stroke-width="1px" opacity="0.25"></line><line x1="0" y1="50.57142857142837" x2="270" y2="50.57142857142837" fill="rgb(0, 0, 0)" stroke="rgb(189, 189, 189)" stroke-width="1px" opacity="0.25"></line><line x1="0" y1="25.285714285714334" x2="270" y2="25.285714285714334" fill="rgb(0, 0, 0)" stroke="rgb(189, 189, 189)" stroke-width="1px" opacity="0.25"></line><line x1="0" y1="0" x2="270" y2="0" fill="rgb(0, 0, 0)" stroke="rgb(189, 189, 189)" stroke-width="1px" opacity="0.25"></line></g></g></g><g><g><line x1="0" y1="2402.1428571428587" x2="270" y2="2402.1428571428587" fill="rgb(0, 0, 0)" stroke="rgb(153, 153, 153)" stroke-width="1.5px"></line></g></g><g><g><line x1="20.76923076923077" y1="0" x2="20.76923076923077" y2="177" fill="rgb(0, 0, 0)" stroke="rgb(153, 153, 153)" stroke-width="1.5px"></line></g></g><g><g><g><g><g><path stroke="rgb(255, 112, 67)" stroke-width="2px" d="M208.3153846153846,-7.408535005878369L208.41923076923078,41.831280615864124L208.52307692307693,17.32873553608106L208.62692307692308,57.364164530070695L208.73076923076923,86.76749189786396L208.83461538461538,114.92891123354512L208.93846153846155,81.97456619036913L209.0423076923077,96.3937185954223L209.14615384615385,100.84799036371598L209.25,80.2382620660024L209.35384615384615,73.88081197842992L209.4576923076923,66.38806942514384L209.56153846153848,111.26571506259766L209.6653846153846,81.003419976856L209.76923076923077,64.41610689696337L209.87307692307692,74.62335151501605L209.97692307692307,92.11049492600195L210.08076923076925,63.60670533074804L210.18461538461537,80.80699410508872L210.28846153846155,82.38480619706584L210.3923076923077,113.13199645087431L210.49615384615385,90.4113413106153L210.6,115.35031640165326L210.70384615384614,134.12653864997307L210.80769230769232,125.99319161463816L210.91153846153847,83.82801813666865L211.01538461538462,119.99949320524946L211.11923076923077,96.2952633570841L211.22307692307692,102.28644743741509L211.32692307692307,109.20899657213639L211.43076923076924,93.18220255159254L211.53461538461536,117.43350577739587L211.63846153846154,130.5392360977792L211.7423076923077,130.3999700720185L211.84615384615384,119.95604758444026L211.95000000000002,116.70862813888432L212.05384615384614,120.04652127277332L212.15769230769232,113.91356237640603L212.26153846153846,111.8435998434L212.3653846153846,120.14752348603824L212.46923076923076,101.62111265507583L212.5730769230769,107.01737707117765L212.6769230769231,95.68869002953443L212.78076923076924,124.12252311887485L212.8846153846154,98.23705890761403L212.98846153846154,114.04489239021521L213.09230769230768,121.83923779194208L213.19615384615383,46.29196964658361L213.3,91.24436809395587L213.40384615384613,84.41124541114343L213.5076923076923,32.634495528980075L213.6115384615385,89.00672754450574L213.7153846153846,94.54431200506686L213.81923076923078,89.77167999010135L213.9230769230769,103.83582228151883L214.02692307692308,114.08668088580495L214.13076923076923,85.58001165190525L214.23461538461538,69.71391956482115L214.33846153846156,95.68556360118451L214.44230769230768,108.7428747262187L214.54615384615386,95.10187750645507L214.65,56.92272227075777L214.75384615384615,109.1193897787756L214.8576923076923,114.37063675989577L214.96153846153845,116.97001064938237L215.0653846153846,50.52883437348552L215.16923076923078,88.61221350730496L215.2730769230769,83.18679511760566L215.37692307692308,92.47503810397566L215.48076923076925,98.86648475519456L215.58461538461538,119.14274836926919L215.68846153846155,134.1005246787792L215.79230769230767,148.83043853424843L215.89615384615385,143.79727804309988L216,122.95538008683744L216.10384615384615,153.23775504599035L216.20769230769233,141.60137808492343L216.31153846153845,152.8586713017685L216.41538461538462,131.76213425220465L216.51923076923077,132.29614054539394L216.62307692307692,112.90150697542076L216.72692307692307,137.21865966370257L216.83076923076922,82.17024466067878L216.93461538461537,94.14921776285534L217.03846153846155,118.54579771485979L217.1423076923077,122.21437525279967L217.24615384615385,116.07491542670853L217.35000000000002,88.38125803506031L217.45384615384614,108.51874839327122L217.55769230769232,125.78431776372832L217.66153846153844,117.43678215440501L217.76538461538462,117.54863866999726L217.86923076923077,141.84318510280738L217.97307692307692,130.40759755296932L218.0769230769231,140.21184368803176L218.18076923076922,87.18125924648405L218.2846153846154,131.52309630280817L218.38846153846154,130.01865930026128L218.4923076923077,126.12461368242116L218.59615384615384,130.50216010638158L218.70000000000002,154.2395233767343L218.80384615384614,173.03466774395366L218.90769230769232,161.13486290114164L219.01153846153846,134.40485491153086L219.1153846153846,137.58392641933912L219.2192307692308,113.83142465348327L219.3230769230769,139.11151964150758L219.4269230769231,166.19784620044956L219.5307692307692,150.8682413326573L219.6346153846154,114.87263849793263L219.73846153846154,131.06617947981064L219.84230769230768,136.94227687287076L219.94615384615386,160.70088831218166L220.04999999999998,112.15189403587085L220.15384615384616,153.96832168447511L220.2576923076923,154.70939035282183L220.36153846153846,149.57029670090313L220.4653846153846,154.6284432984046L220.56923076923078,153.93187885996753L220.6730769230769,152.30870566931728L220.77692307692308,168.45803023676504L220.88076923076923,176.5105629725994L220.98461538461538,160.73553825570994L221.08846153846156,165.44595515393965L221.19230769230768,131.88825356078684L221.29615384615386,125.81717381289003L221.39999999999998,137.07127777667793L221.50384615384615,80.9008761946844L221.6076923076923,72.71600390273667L221.71153846153845,53.49020764962984L221.81538461538463,40.01551525946408L221.91923076923078,42.54571008690053L222.02307692307693,58.63370896752807L222.12692307692308,49.713405344854785L222.23076923076923,83.19826604790308L222.33461538461538,68.69909621397741L222.43846153846155,73.12056640202714L222.54230769230767,100.1824619905477L222.64615384615385,123.87406411983532L222.75,121.46014080943861L222.85384615384615,103.68607972819076L222.95769230769233,116.68757328247109L223.06153846153845,122.79383443252138L223.16538461538462,134.99714074576863L223.26923076923075,137.73432606144897L223.37307692307692,125.43601887208136L223.4769230769231,75.03916862817611L223.58076923076922,88.44342543609156L223.6846153846154,108.57636516221133L223.78846153846155,126.79346872610238L223.8923076923077,165.04804702545653L223.99615384615385,158.7913998907108L224.1,157.0023080163095L224.20384615384614,157.36305304229478L224.30769230769232,157.54067597646508L224.41153846153844,146.52698384439358L224.51538461538462,134.61156486358632L224.61923076923077,155.2683737892805L224.72307692307692,169.30796116703138L224.8269230769231,168.04649185350408L224.93076923076922,182.00803656107738L225.0346153846154,174.03689024370544L225.1384615384615,172.28736395721054L225.2423076923077,124.12546938282337L225.34615384615387,134.517519320211L225.45,107.62049522707514L225.55384615384617,114.82194400426968L225.65769230769232,142.01297037616865L225.76153846153846,103.79168839940715L225.8653846153846,121.66001449467863L225.96923076923076,99.87759770077881L226.0730769230769,106.01027303751619L226.1769230769231,75.14355950416343L226.28076923076924,87.87402320762058L226.3846153846154,63.19438851051434L226.48846153846154,75.4079272178331L226.59230769230768,97.17776472902838L226.69615384615386,81.45504715507022L226.79999999999998,48.91704901393285L226.90384615384616,41.56053564408174L227.0076923076923,87.962286191507L227.11153846153846,129.72249313944283L227.21538461538464,131.94758571324678L227.31923076923076,102.37885330401615L227.42307692307693,81.36849357398884L227.52692307692308,69.69706998210955L227.63076923076923,103.60075104372233L227.73461538461538,67.71085946641276L227.83846153846153,87.88387484394927L227.94230769230768,97.10505631081023L228.04615384615386,140.68952470641662L228.15,100.81840842736551L228.25384615384615,97.26885624307334L228.3576923076923,83.41069547878466L228.46153846153845,92.45914600561969L228.56538461538463,108.3384050947396L228.66923076923075,91.89488065373715L228.77307692307693,109.4453194864501L228.87692307692308,133.89504083476203L228.98076923076923,143.2497724970513L229.0846153846154,161.69656269518256L229.18846153846152,-28.62961868782225L229.2923076923077,30.436902129330292L229.39615384615385,57.945971130110784L229.5,52.55643918441425L229.60384615384615,60.04027649358909L229.7076923076923,96.98256750802648L229.81153846153845,116.13841266232153L229.91538461538462,92.81769074336287L230.01923076923077,113.39822266897914L230.12307692307692,96.07306730816165L230.22692307692307,75.25853109741706L230.33076923076922,79.33979469256015L230.4346153846154,86.0451552050582L230.53846153846152,101.22155347416145L230.6423076923077,107.67348915563758L230.74615384615387,81.7087659934478L230.85,94.72091405643063L230.95384615384617,82.3786854942964L231.0576923076923,73.296316839987L231.16153846153847,68.25310164214362L231.26538461538462,72.32378054912478L231.36923076923077,77.75546130520017L231.47307692307692,62.62361090427933L231.57692307692307,92.011147335022L231.68076923076922,126.10085970707847L231.7846153846154,83.64960749305727L231.88846153846154,96.5641772368145L231.9923076923077,114.75997299237028L232.09615384615387,84.15937566074375L232.2,27.725253414416677L232.30384615384617,38.06617762183561L232.4076923076923,76.42629529642039L232.51153846153846,99.31389677460596L232.61538461538464,61.201599219483356L232.71923076923076,96.12549359911642L232.82307692307694,117.4537230110149L232.92692307692306,112.85747218159138L233.03076923076924,100.73980234026126L233.1346153846154,126.31334845825124L233.23846153846154,136.9937634912802L233.34230769230768,121.57461959237472L233.44615384615383,115.16549007109428L233.55,146.6212906770038L233.65384615384616,42.44485926904753L233.7576923076923,66.77086709733462L233.86153846153846,109.21895220583647L233.96538461538464,112.91285903363699L234.06923076923076,101.09785456126504L234.17307692307693,127.66716017949497L234.27692307692305,110.86051030022377L234.38076923076923,87.81265318516067L234.4846153846154,119.72407226976526L234.58846153846153,124.0085348372096L234.6923076923077,143.60875666304185L234.79615384615383,101.11796312770358L234.9,116.34024239666788L235.00384615384615,81.0673611160796L235.1076923076923,51.62355298294988L235.21153846153845,90.8472074112385L235.3153846153846,92.21899873263197L235.41923076923078,69.15610000382657L235.52307692307693,91.54888503401236L235.62692307692308,80.72529260477111L235.73076923076923,91.58302982289875L235.8346153846154,74.51511726845573L235.93846153846152,60.730768018522085L236.0423076923077,62.16207938661802L236.14615384615382,41.765163916259496L236.25,61.12246203808837L236.35384615384618,61.20367729555022L236.4576923076923,-2.7375168909064955L236.56153846153848,67.84561450850944L236.6653846153846,76.2438341455835L236.76923076923077,49.541547360933166L236.87307692307692,69.25750109471704L236.97692307692307,62.44572681224772L237.08076923076922,102.41905121654709L237.1846153846154,116.7867308348867L237.28846153846155,107.12143740001014L237.3923076923077,80.26851661426589L237.49615384615385,79.85483535013817L237.6,129.31706484315688L237.70384615384617,127.18590497383497L237.8076923076923,119.16652863014012L237.91153846153847,134.3241052742668L238.0153846153846,136.31589407930258L238.11923076923077,148.252517603522L238.22307692307695,157.94486931041294L238.32692307692307,139.48883914737021L238.43076923076924,160.41518644479083L238.53461538461536,166.88146176671134L238.63846153846154,181.43971821167298L238.7423076923077,159.31344592868217L238.84615384615384,182.74108896093077L238.95,179.01063890632167L239.05384615384617,165.8667808597713L239.15769230769232,130.30643170882982L239.26153846153846,135.4489088915656L239.3653846153846,153.69109955889928L239.46923076923076,177.61131345565036L239.57307692307694,156.66547919626268L239.67692307692306,141.4423270712637L239.78076923076924,169.79809013292112L239.88461538461536,111.9310477895351L239.98846153846154,117.81550639578008L240.0923076923077,125.61532336980777L240.19615384615383,140.05121087140262L240.3,131.81793794099352L240.40384615384613,115.68898243175819L240.5076923076923,149.263082689275L240.61153846153846,89.2698159237934L240.7153846153846,107.92532162105734L240.81923076923078,103.36744200642595L240.92307692307693,-198.70788638916216L241.02692307692308,-67.06408410062636L241.13076923076923,22.427065303043147L241.23461538461538,49.91218426489906L241.33846153846153,69.95445337521063L241.4423076923077,69.53735989024739L241.54615384615383,90.70033299227563L241.65,99.05313545559142L241.75384615384613,116.76595842724174L241.8576923076923,121.52741790771147L241.96153846153848,135.26142669296038L242.0653846153846,143.6457342658982L242.16923076923078,141.74224141054344L242.27307692307693,137.9601684465504L242.37692307692308,153.17092475534736L242.48076923076923,164.55104412410017L242.58461538461538,125.07880635977943L242.68846153846155,142.9667105976582L242.7923076923077,88.54112992054125L242.89615384615385,70.94952510557958L243,94.98591447501256L243.10384615384615,104.70117222615835L243.2076923076923,119.43617326825122L243.31153846153848,96.29867025755527L243.4153846153846,81.45424757667833L243.51923076923077,78.20734926622193L243.62307692307692,97.9877344198973L243.72692307692307,85.63184870988677L243.83076923076925,107.43012283186717L243.93461538461537,106.73509899001826L244.03846153846155,112.27613432283948L244.1423076923077,112.42809258318819L244.24615384615385,94.38534693796133L244.35,49.06818064464036L244.45384615384614,1.7338494802291424L244.55769230769232,29.748077379068572L244.66153846153847,-19.055962911264714L244.76538461538462,-6.919060507596805L244.86923076923077,48.57065346289814L244.97307692307692,-21.47557716272204L245.07692307692307,37.35809112879765L245.18076923076924,51.636559160310796L245.28461538461536,80.27062606320301L245.38846153846154,107.52193646817443L245.4923076923077,129.13224031271534L245.59615384615384,150.06103674700768L245.70000000000002,147.96644388004412L245.80384615384614,159.51138643584068L245.90769230769232,134.19887092890895L246.01153846153846,129.40482142165564L246.1153846153846,113.89657894046552L246.21923076923076,124.68418073219901L246.3230769230769,132.2719092887979L246.4269230769231,136.76878202009541L246.53076923076924,123.62619815242152L246.6346153846154,131.7444285374054L246.73846153846154,118.26839600587066L246.84230769230768,68.95461630999114L246.94615384615383,84.93454662838451L247.05,101.90094915045321L247.15384615384613,62.284023088294624L247.2576923076923,72.22022356770279L247.3615384615385,91.7407720048707L247.4653846153846,86.05074914282004L247.56923076923078,88.68654011308986L247.6730769230769,81.53241551802736L247.77692307692308,86.94535825780747L247.88076923076923,118.76614068143877L247.98461538461538,143.62645794609034L248.08846153846156,139.61355746440535L248.19230769230768,137.52364412764746L248.29615384615386,115.37486487690082L248.4,99.8819087049315L248.50384615384615,112.67673590103763L248.6076923076923,130.20156544297063L248.71153846153845,143.66251163222455L248.8153846153846,144.4195945669636L248.91923076923078,165.48515126761353L249.0230769230769,131.68352903604162L249.12692307692308,108.62820130736283L249.23076923076925,56.20392802362315" style="fill: none;" fill="none"></path></g></g></g></g><g opacity="0.2"><g><g><g><path stroke="rgb(255, 112, 67)" stroke-width="2px" d="M21.080769230769228,-2352.8624377931887L207.79615384615383,50.51639965602322L207.9,76.3511431217193L208.00384615384613,160.4244201523917L208.1076923076923,36.34530850819169L208.21153846153848,90.85832783154073L208.3153846153846,112.09763237408225L208.41923076923078,115.244402544839L208.52307692307693,-19.291740315301183L208.62692307692308,117.28658539908268L208.73076923076923,130.81487877028326L208.83461538461538,157.13793754577637L208.93846153846155,32.56629058292924L209.0423076923077,118.016345500946L209.14615384615385,107.52826707703723L209.25,49.326809304101054L209.35384615384615,64.34521794319147L209.4576923076923,55.149366515023296L209.56153846153848,178.5807068007333L209.6653846153846,35.610574824469346L209.76923076923077,39.535333769661946L209.87307692307692,89.93414589336935L209.97692307692307,118.34113546780176L210.08076923076925,20.851093871252772L210.18461538461537,106.6074008601052L210.28846153846155,84.75152288164406L210.3923076923077,159.25276483808244L210.49615384615385,56.33036613464348L210.6,152.7587740761893L210.70384615384614,162.29086978094918L210.80769230769232,113.79317164421077L210.91153846153847,20.58025973183759L211.01538461538462,174.2567048754011L211.11923076923077,60.73891895157943L211.22307692307692,111.27322350229532L211.32692307692307,119.59282023566108L211.43076923076924,69.1420115743364L211.53461538461536,153.81046056747437L211.63846153846154,150.19783156258717L211.7423076923077,130.19107103347775L211.84615384615384,104.29016385759623L211.95000000000002,111.83749897139408L212.05384615384614,125.05336097308566L212.15769230769232,104.71412403242924L212.26153846153846,108.7386560440063L212.3653846153846,132.60340894971574L212.46923076923076,73.83149640900743L212.5730769230769,115.1117736952645L212.6769230769231,78.69565946715213L212.78076923076924,166.77327275276184L212.8846153846154,59.40886259078972L212.98846153846154,137.75664261409213L213.09230769230768,133.5307558945247L213.19615384615383,-67.02893257141129L213.3,158.6729657649994L213.40384615384613,74.16156138692577L213.5076923076923,-45.030629294259356L213.6115384615385,173.56507556779044L213.7153846153846,102.85068869590755L213.81923076923078,82.61273196765349L213.9230769230769,124.93203571864535L214.02692307692308,129.46296879223414L214.13076923076923,42.82000780105583L214.23461538461538,45.9147814341953L214.33846153846156,134.643029655729L214.44230769230768,128.3288414137704L214.54615384615386,74.64038167681007L214.65,-0.34601058278775665L214.75384615384615,187.414391040802L214.8576923076923,122.24750723157607L214.96153846153845,120.86907148361202L215.0653846153846,-49.13293004035965L215.16923076923078,145.73728220803395L215.2730769230769,75.04866753305701L215.37692307692308,106.40740258353092L215.48076923076925,108.45365473202293L215.58461538461538,149.55714379038128L215.68846153846155,156.5371891430446L215.79230769230767,170.9253093174526L215.89615384615385,136.24753730637684L216,91.69253315244397L216.10384615384615,198.66131748471943L216.20769230769233,124.14681264332361L216.31153846153845,169.74461112703597L216.41538461538462,100.11732867785858L216.51923076923077,133.09714998517717L216.62307692307692,83.80955662046155L216.72692307692307,173.6943886961256L216.83076923076922,-0.40237784385692943L216.93461538461537,112.11767741612022L217.03846153846155,155.14066764286588L217.1423076923077,127.7172415597098L217.24615384615385,106.8657256875719L217.35000000000002,46.84077194758816L217.45384615384614,138.72498393058774L217.55769230769232,151.6826718194144L217.66153846153844,104.91547874041962L217.76538461538462,117.7164234433855L217.86923076923077,178.2850047520229L217.97307692307692,113.25421622821261L218.0769230769231,154.918212890625L218.18076923076922,7.6353825841630085L218.2846153846154,198.03585188729426L218.38846153846154,127.7620037964412L218.4923076923077,120.28354525566097L218.59615384615384,137.06847974232264L218.70000000000002,189.84556828226363L218.80384615384614,201.22738429478238L218.90769230769232,143.28515563692363L219.01153846153846,94.30984292711526L219.1153846153846,142.35253368105205L219.2192307692308,78.20267200469965L219.3230769230769,177.0316621235439L219.4269230769231,206.82733603886197L219.5307692307692,127.8738340309688L219.6346153846154,60.879234245845176L219.73846153846154,155.35649095262798L219.84230769230768,145.7564229624612L219.94615384615386,196.33880547114782L220.04999999999998,39.32840262140538L220.15384615384616,216.6929631573814L220.2576923076923,155.82099335534232L220.36153846153846,141.86165622302462L220.4653846153846,162.21566319465637L220.56923076923078,152.88703220231193L220.6730769230769,149.87394588334217L220.77692307692308,192.68201708793643L220.88076923076923,188.58936207635062L220.98461538461538,137.0730011803763L221.08846153846156,172.51158050128393L221.19230769230768,81.55170117105752L221.29615384615386,116.71055419104435L221.39999999999998,153.95243372235979L221.50384615384615,-3.3547261783056186L221.6076923076923,60.43869546481535L221.71153846153845,24.651513269969303L221.81538461538463,19.80347667421603L221.91923076923078,46.34100232805516L222.02307692307693,82.76570728846953L222.12692307692308,36.332949910844995L222.23076923076923,133.42555710247584L222.33461538461538,46.95034146308891L222.43846153846155,79.75277168410159L222.54230769230767,140.77530537332805L222.64615384615385,159.41146731376648L222.75,117.83925584384372L222.85384615384615,77.02498810631883L222.95769230769233,136.18981361389157L223.06153846153845,131.95322615759713L223.16538461538462,153.30210021563937L223.26923076923075,141.84010403496876L223.37307692307692,106.98855808803009L223.4769230769231,-0.5561067376819211L223.58076923076922,108.54981064796443L223.6846153846154,138.7757747513907L223.78846153846155,154.11912407193864L223.8923076923077,222.42991447448733L223.99615384615385,149.40642918859209L224.1,154.31867020470756L224.20384615384614,157.90417058127267L224.30769230769232,157.80711037772042L224.41153846153844,130.00644564628598L224.51538461538462,116.73843639237536L224.61923076923077,186.25358717782157L224.72307692307692,190.36734223365784L224.8269230769231,166.15428788321358L224.93076923076922,202.95035362243655L225.0346153846154,162.0801707676479L225.1384615384615,169.66307452746798L225.2423076923077,51.882627521242334L225.34615384615387,150.1055942262922L225.45,67.27495908737177L225.55384615384617,125.62411717006137L225.65769230769232,182.79950993401664L225.76153846153846,46.45976543426506L225.8653846153846,148.4625036375863L225.96923076923076,67.20397250992905L226.0730769230769,115.20928604262211L226.1769230769231,28.84348920413416L226.28076923076924,106.96971876280644L226.3846153846154,26.174936464854557L226.48846153846154,93.72823527881073L226.59230769230768,129.83252099582126L226.69615384615386,57.87097079413271L226.79999999999998,0.11005180222636302L226.90384615384616,30.52576558930524L227.0076923076923,157.56491201264518L227.11153846153846,192.36280356134688L227.21538461538464,135.2852245739528L227.31923076923076,58.02575469017021L227.42307692307693,49.85295397894715L227.52692307692308,52.18993459429053L227.63076923076923,154.45627263614108L227.73461538461538,13.87602210044851L227.83846153846153,118.14339791025431L227.94230769230768,110.93682851110182L228.04615384615386,206.0662272998265L228.15,41.011734008788984L228.25384615384615,91.94452796663552L228.3576923076923,62.62345433235163L228.46153846153845,106.03182179587223L228.56538461538463,132.1572937284197L228.66923076923075,67.22959399223322L228.77307692307693,135.77097773551938L228.87692307692308,170.56962285723006L228.98076923076923,157.28186999048503L229.0846153846154,189.36674799237935L229.18846153846152,-314.11889076232944L229.2923076923077,119.03668335505893L229.39615384615385,99.20957463128222L229.5,44.47214126586906L229.60384615384615,71.26603245735163L229.7076923076923,152.3960040296827L229.81153846153845,144.87218039376393L229.91538461538462,57.836607864924765L230.01923076923077,144.26902055740356L230.12307692307692,70.08533426693502L230.22692307692307,44.036726781300054L230.33076923076922,85.46169008527478L230.4346153846154,96.10319597380497L230.53846153846152,123.98615087781633L230.6423076923077,117.35139267785205L230.74615384615387,42.76168125016341L230.85,114.23913615090503L230.95384615384617,63.86534265109465L231.0576923076923,59.67276385852263L231.16153846153847,60.68827884537826L231.26538461538462,78.42979890959597L231.36923076923077,85.90298243931356L231.47307692307692,39.92583530289777L231.57692307692307,136.09245198113575L231.68076923076922,177.23542826516288L231.7846153846154,19.972729172025314L231.88846153846154,115.93603185244967L231.9923076923077,142.05366662570407L232.09615384615387,38.25847966330384L232.2,-56.925929955073926L232.30384615384617,53.577563932963706L232.4076923076923,133.96647180829729L232.51153846153846,133.6452989918845L232.61538461538464,4.0331528867993L232.71923076923076,148.511335168566L232.82307692307694,149.44606712886264L232.92692307692306,105.96309593745636L233.03076923076924,82.56329757826664L233.1346153846154,164.67366763523648L233.23846153846154,153.01438604082378L233.34230769230768,98.44590374401632L233.44615384615383,105.55179578917362L233.55,193.80499158586775L233.65384615384616,-113.819787842887L233.7576923076923,103.25987883976524L233.86153846153846,172.89107986858915L233.96538461538464,118.45371927533827L234.06923076923076,83.37534785270685L234.17307692307693,167.52111860683988L234.27692307692305,85.65053548131665L234.38076923076923,53.24086751256663L234.4846153846154,167.59120089667184L234.58846153846153,130.43522868837627L234.6923076923077,173.00908940179008L234.79615384615383,37.38177282469605L234.9,139.17366130011422L235.00384615384615,28.15803919519688L235.1076923076923,7.457840783255334L235.21153846153845,149.68268905367168L235.3153846153846,94.27668571472164L235.41923076923078,34.56175191061829L235.52307692307693,125.13806257929117L235.62692307692308,64.4899039609091L235.73076923076923,107.86963565008976L235.8346153846154,48.913248436791484L235.93846153846152,40.05424414362218L236.0423076923077,64.30904643876205L236.14615384615382,11.169790710721601L236.25,90.15840922083169L236.35384615384618,61.325500181743L236.4576923076923,-98.64930817059127L236.56153846153848,173.72031160763333L236.6653846153846,88.84116360119405L236.76923076923077,9.488117183957666L236.87307692307692,98.8314316953931L236.97692307692307,52.22806538854319L237.08076923076922,162.37903782299588L237.1846153846154,138.33825026239666L237.28846153846155,92.62349724769588L237.3923076923077,39.98913543564923L237.49615384615385,79.23431345394674L237.6,203.51040908268521L237.70384615384617,123.98916516985209L237.8076923076923,107.13746411459782L237.91153846153847,157.0604702404567L238.0153846153846,139.3035772868565L238.11923076923077,166.15745288985116L238.22307692307695,172.48339687074935L238.32692307692307,111.80479390280583L238.43076923076924,191.80470739092146L238.53461538461536,176.5808747495924L238.63846153846154,203.27710287911555L238.7423076923077,126.12403750419615L238.84615384615384,217.88255350930353L238.95,173.4149638244084L239.05384615384617,146.15099378994532L239.15769230769232,76.96590798241746L239.26153846153846,143.16262466566903L239.3653846153846,181.0543855598995L239.46923076923076,213.49163430077692L239.57307692307694,125.24672780718119L239.67692307692306,118.60759888376505L239.78076923076924,212.33173472540722L239.88461538461536,25.130484274455387L239.98846153846154,126.64219430514743L240.0923076923077,137.31504883084978L240.19615384615383,161.70504212379456L240.3,119.4680285453796L240.40384615384613,91.49554916790548L240.5076923076923,199.62423307555065L240.61153846153846,-0.7200842244285448L240.7153846153846,135.90858016695293L240.81923076923078,96.53062258447915L240.92307692307693,-651.8208789825446L241.02692307692308,130.4016193321773L241.13076923076923,156.66378940854753L241.23461538461538,91.13986270768297L241.33846153846153,100.0178570406777L241.4423076923077,68.9117196628025L241.54615384615383,122.44479264531813L241.65,111.58233915056498L241.75384615384613,143.33519288471766L241.8576923076923,128.66960712841578L241.96153846153848,155.86243987083435L242.0653846153846,156.22219562530518L242.16923076923078,138.88700212751115L242.27307692307693,132.2870590005602L242.37692307692308,175.98705921854292L242.48076923076923,181.62122317722867L242.58461538461538,65.87044971329819L242.68846153846155,169.7985669544765L242.7923076923077,6.902758904865706L242.89615384615385,44.56211788313721L243,131.0404985291617L243.10384615384615,119.27405885287692L243.2076923076923,141.53867483139035L243.31153846153848,61.59241574151168L243.4153846153846,59.18761355536318L243.51923076923077,73.33700180053705L243.62307692307692,127.65831215041023L243.72692307692307,67.09802014487124L243.83076923076925,140.12753401483806L243.93461538461537,105.69256322724475L244.03846153846155,120.5876873220716L244.1423076923077,112.65602997371127L244.24615384615385,67.32122847012106L244.35,-18.90756879534053L244.45384615384614,-69.2676472663881L244.55769230769232,71.76941922732756L244.66153846153847,-92.26202334676489L244.76538461538462,11.286293097904647L244.86923076923077,131.8052244186401L244.97307692307692,-126.5449231011529L245.07692307692307,125.60859356607706L245.18076923076924,73.05426120758051L245.28461538461536,123.22172641754146L245.38846153846154,148.39890207563127L245.4923076923077,161.54769607952665L245.59615384615384,181.45423139844624L245.70000000000002,144.82455457959855L245.80384615384614,176.82880026953563L245.90769230769232,96.23009766851148L246.01153846153846,122.21374716077528L246.1153846153846,90.6342152186802L246.21923076923076,140.86558341979978L246.3230769230769,143.65350212369646L246.4269230769231,143.51409111704143L246.53076923076924,103.91232235091069L246.6346153846154,143.92177411488123L246.73846153846154,98.05434720856799L246.84230769230768,-5.016053233827998L246.94615384615383,108.90444210597445L247.05,127.35055293355668L247.15384615384613,2.858633995056034L247.2576923076923,87.12452428681505L247.3615384615385,121.0215946606227L247.4653846153846,77.51571484974447L247.56923076923078,92.64022656849447L247.6730769230769,70.80122862543372L247.77692307692308,95.06477236747737L247.88076923076923,166.49731431688582L247.98461538461538,180.91693384306774L248.08846153846156,133.59420674187794L248.19230769230768,134.38877412251063L248.29615384615386,82.15169600078032L248.4,76.64247444697783L248.50384615384615,131.86897669519695L248.6076923076923,156.48880975587028L248.71153846153845,163.853930916105L248.8153846153846,145.5552189690726L248.91923076923078,197.08348631858829L249.0230769230769,80.9810956886836L249.12692307692308,74.04520971434451L249.23076923076925,-22.432481901986403" style="fill: none;" fill="none"></path></g></g></g></g></g></g><g transform="translate(60, 177)" clip-path="url(#clip_1)"><clipPath id="clip_1"><rect width="270" height="23"></rect></clipPath><g><g><line x1="0" y1="0" x2="0" y2="5" style="visibility: inherit;" fill="rgb(0, 0, 0)" stroke="rgb(204, 204, 204)" stroke-width="1px"></line><line x1="20.76923076923077" y1="0" x2="20.76923076923077" y2="5" style="visibility: inherit;" fill="rgb(0, 0, 0)" stroke="rgb(204, 204, 204)" stroke-width="1px"></line><line x1="41.53846153846154" y1="0" x2="41.53846153846154" y2="5" style="visibility: inherit;" fill="rgb(0, 0, 0)" stroke="rgb(204, 204, 204)" stroke-width="1px"></line><line x1="62.307692307692314" y1="0" x2="62.307692307692314" y2="5" style="visibility: inherit;" fill="rgb(0, 0, 0)" stroke="rgb(204, 204, 204)" stroke-width="1px"></line><line x1="83.07692307692308" y1="0" x2="83.07692307692308" y2="5" style="visibility: inherit;" fill="rgb(0, 0, 0)" stroke="rgb(204, 204, 204)" stroke-width="1px"></line><line x1="103.84615384615385" y1="0" x2="103.84615384615385" y2="5" style="visibility: inherit;" fill="rgb(0, 0, 0)" stroke="rgb(204, 204, 204)" stroke-width="1px"></line><line x1="124.61538461538463" y1="0" x2="124.61538461538463" y2="5" style="visibility: inherit;" fill="rgb(0, 0, 0)" stroke="rgb(204, 204, 204)" stroke-width="1px"></line><line x1="145.3846153846154" y1="0" x2="145.3846153846154" y2="5" style="visibility: inherit;" fill="rgb(0, 0, 0)" stroke="rgb(204, 204, 204)" stroke-width="1px"></line><line x1="166.15384615384616" y1="0" x2="166.15384615384616" y2="5" style="visibility: inherit;" fill="rgb(0, 0, 0)" stroke="rgb(204, 204, 204)" stroke-width="1px"></line><line x1="186.9230769230769" y1="0" x2="186.9230769230769" y2="5" style="visibility: inherit;" fill="rgb(0, 0, 0)" stroke="rgb(204, 204, 204)" stroke-width="1px"></line><line x1="207.6923076923077" y1="0" x2="207.6923076923077" y2="5" style="visibility: inherit;" fill="rgb(0, 0, 0)" stroke="rgb(204, 204, 204)" stroke-width="1px"></line><line x1="228.46153846153845" y1="0" x2="228.46153846153845" y2="5" style="visibility: inherit;" fill="rgb(0, 0, 0)" stroke="rgb(204, 204, 204)" stroke-width="1px"></line><line x1="249.23076923076925" y1="0" x2="249.23076923076925" y2="5" style="visibility: inherit;" fill="rgb(0, 0, 0)" stroke="rgb(204, 204, 204)" stroke-width="1px"></line><line x1="270" y1="0" x2="270" y2="5" style="visibility: inherit;" fill="rgb(0, 0, 0)" stroke="rgb(204, 204, 204)" stroke-width="1px"></line></g><g transform="translate(0, 8)"><text x="0" y="0" dx="0em" dy="0.95em" style="text-anchor: middle; visibility: hidden; font-family: Roboto, sans-serif; font-size: 12px; font-weight: 200;" fill="rgb(255, 255, 255)" stroke="none" stroke-width="1px">-200</text><text x="20.76923076923077" y="0" dx="0em" dy="0.95em" style="text-anchor: middle; visibility: inherit; font-family: Roboto, sans-serif; font-size: 12px; font-weight: 200;" fill="rgb(255, 255, 255)" stroke="none" stroke-width="1px">0</text><text x="41.53846153846154" y="0" dx="0em" dy="0.95em" style="text-anchor: middle; visibility: hidden; font-family: Roboto, sans-serif; font-size: 12px; font-weight: 200;" fill="rgb(255, 255, 255)" stroke="none" stroke-width="1px">200</text><text x="62.307692307692314" y="0" dx="0em" dy="0.95em" style="text-anchor: middle; visibility: inherit; font-family: Roboto, sans-serif; font-size: 12px; font-weight: 200;" fill="rgb(255, 255, 255)" stroke="none" stroke-width="1px">400</text><text x="83.07692307692308" y="0" dx="0em" dy="0.95em" style="text-anchor: middle; visibility: hidden; font-family: Roboto, sans-serif; font-size: 12px; font-weight: 200;" fill="rgb(255, 255, 255)" stroke="none" stroke-width="1px">600</text><text x="103.84615384615385" y="0" dx="0em" dy="0.95em" style="text-anchor: middle; visibility: inherit; font-family: Roboto, sans-serif; font-size: 12px; font-weight: 200;" fill="rgb(255, 255, 255)" stroke="none" stroke-width="1px">800</text><text x="124.61538461538463" y="0" dx="0em" dy="0.95em" style="text-anchor: middle; visibility: hidden; font-family: Roboto, sans-serif; font-size: 12px; font-weight: 200;" fill="rgb(255, 255, 255)" stroke="none" stroke-width="1px">1k</text><text x="145.3846153846154" y="0" dx="0em" dy="0.95em" style="text-anchor: middle; visibility: inherit; font-family: Roboto, sans-serif; font-size: 12px; font-weight: 200;" fill="rgb(255, 255, 255)" stroke="none" stroke-width="1px">1.2k</text><text x="166.15384615384616" y="0" dx="0em" dy="0.95em" style="text-anchor: middle; visibility: hidden; font-family: Roboto, sans-serif; font-size: 12px; font-weight: 200;" fill="rgb(255, 255, 255)" stroke="none" stroke-width="1px">1.4k</text><text x="186.9230769230769" y="0" dx="0em" dy="0.95em" style="text-anchor: middle; visibility: inherit; font-family: Roboto, sans-serif; font-size: 12px; font-weight: 200;" fill="rgb(255, 255, 255)" stroke="none" stroke-width="1px">1.6k</text><text x="207.6923076923077" y="0" dx="0em" dy="0.95em" style="text-anchor: middle; visibility: hidden; font-family: Roboto, sans-serif; font-size: 12px; font-weight: 200;" fill="rgb(255, 255, 255)" stroke="none" stroke-width="1px">1.8k</text><text x="228.46153846153845" y="0" dx="0em" dy="0.95em" style="text-anchor: middle; visibility: inherit; font-family: Roboto, sans-serif; font-size: 12px; font-weight: 200;" fill="rgb(255, 255, 255)" stroke="none" stroke-width="1px">2k</text><text x="249.23076923076925" y="0" dx="0em" dy="0.95em" style="text-anchor: middle; visibility: hidden; font-family: Roboto, sans-serif; font-size: 12px; font-weight: 200;" fill="rgb(255, 255, 255)" stroke="none" stroke-width="1px">2.2k</text><text x="270" y="0" dx="0em" dy="0.95em" style="text-anchor: middle; visibility: hidden; font-family: Roboto, sans-serif; font-size: 12px; font-weight: 200;" fill="rgb(255, 255, 255)" stroke="none" stroke-width="1px">2.4k</text></g><line x1="0" y1="0" x2="270" y2="0" fill="rgb(0, 0, 0)" stroke="rgb(204, 204, 204)" stroke-width="1px"></line></g></g></g></g></svg>