<svg viewBox="0 0 330 200" xmlns="http://www.w3.org/2000/svg"><g><g><g><g><g><line x1="82.734375" y1="177" x2="77.734375" y2="177" style="visibility: inherit;" fill="rgb(0, 0, 0)" stroke="rgb(204, 204, 204)" stroke-width="1px"></line><line x1="82.734375" y1="154.87500000000006" x2="77.734375" y2="154.87500000000006" style="visibility: inherit;" fill="rgb(0, 0, 0)" stroke="rgb(204, 204, 204)" stroke-width="1px"></line><line x1="82.734375" y1="132.75" x2="77.734375" y2="132.75" style="visibility: inherit;" fill="rgb(0, 0, 0)" stroke="rgb(204, 204, 204)" stroke-width="1px"></line><line x1="82.734375" y1="110.62500000000006" x2="77.734375" y2="110.62500000000006" style="visibility: inherit;" fill="rgb(0, 0, 0)" stroke="rgb(204, 204, 204)" stroke-width="1px"></line><line x1="82.734375" y1="88.5" x2="77.734375" y2="88.5" style="visibility: inherit;" fill="rgb(0, 0, 0)" stroke="rgb(204, 204, 204)" stroke-width="1px"></line><line x1="82.734375" y1="66.37500000000006" x2="77.734375" y2="66.37500000000006" style="visibility: inherit;" fill="rgb(0, 0, 0)" stroke="rgb(204, 204, 204)" stroke-width="1px"></line><line x1="82.734375" y1="44.25" x2="77.734375" y2="44.25" style="visibility: inherit;" fill="rgb(0, 0, 0)" stroke="rgb(204, 204, 204)" stroke-width="1px"></line><line x1="82.734375" y1="22.12500000000006" x2="77.734375" y2="22.12500000000006" style="visibility: inherit;" fill="rgb(0, 0, 0)" stroke="rgb(204, 204, 204)" stroke-width="1px"></line><line x1="82.734375" y1="0" x2="77.734375" y2="0" style="visibility: inherit;" fill="rgb(0, 0, 0)" stroke="rgb(204, 204, 204)" stroke-width="1px"></line></g><g transform="translate(72.734375, 0)"><text x="0" y="177" dx="0em" dy="0.3em" style="text-anchor: end; visibility: hidden; font-family: Roboto, sans-serif; font-size: 12px; font-weight: 200;" fill="rgb(255, 255, 255)" stroke="none" stroke-width="1px">1.9e-4</text><text x="0" y="154.87500000000006" dx="0em" dy="0.3em" style="text-anchor: end; visibility: inherit; font-family: Roboto, sans-serif; font-size: 12px; font-weight: 200;" fill="rgb(255, 255, 255)" stroke="none" stroke-width="1px">1.95e-4</text><text x="0" y="132.75" dx="0em" dy="0.3em" style="text-anchor: end; visibility: hidden; font-family: Roboto, sans-serif; font-size: 12px; font-weight: 200;" fill="rgb(255, 255, 255)" stroke="none" stroke-width="1px">2e-4</text><text x="0" y="110.62500000000006" dx="0em" dy="0.3em" style="text-anchor: end; visibility: inherit; font-family: Roboto, sans-serif; font-size: 12px; font-weight: 200;" fill="rgb(255, 255, 255)" stroke="none" stroke-width="1px">2.05e-4</text><text x="0" y="88.5" dx="0em" dy="0.3em" style="text-anchor: end; visibility: hidden; font-family: Roboto, sans-serif; font-size: 12px; font-weight: 200;" fill="rgb(255, 255, 255)" stroke="none" stroke-width="1px">2.1e-4</text><text x="0" y="66.37500000000006" dx="0em" dy="0.3em" style="text-anchor: end; visibility: inherit; font-family: Roboto, sans-serif; font-size: 12px; font-weight: 200;" fill="rgb(255, 255, 255)" stroke="none" stroke-width="1px">2.15e-4</text><text x="0" y="44.25" dx="0em" dy="0.3em" style="text-anchor: end; visibility: hidden; font-family: Roboto, sans-serif; font-size: 12px; font-weight: 200;" fill="rgb(255, 255, 255)" stroke="none" stroke-width="1px">2.2e-4</text><text x="0" y="22.12500000000006" dx="0em" dy="0.3em" style="text-anchor: end; visibility: inherit; font-family: Roboto, sans-serif; font-size: 12px; font-weight: 200;" fill="rgb(255, 255, 255)" stroke="none" stroke-width="1px">2.25e-4</text><text x="0" y="0" dx="0em" dy="0.3em" style="text-anchor: end; visibility: hidden; font-family: Roboto, sans-serif; font-size: 12px; font-weight: 200;" fill="rgb(255, 255, 255)" stroke="none" stroke-width="1px">2.3e-4</text></g><line x1="82.734375" y1="0" x2="82.734375" y2="177" fill="rgb(0, 0, 0)" stroke="rgb(204, 204, 204)" stroke-width="1px"></line></g></g><g transform="translate(82, 0)" clip-path="url(#clip_0)"><clipPath id="clip_0"><rect width="247" height="177"></rect></clipPath><g><g><g><line x1="0" y1="0" x2="0" y2="177" fill="rgb(0, 0, 0)" stroke="rgb(189, 189, 189)" stroke-width="1px" opacity="0.25"></line><line x1="19.020432692307693" y1="0" x2="19.020432692307693" y2="177" fill="rgb(0, 0, 0)" stroke="rgb(189, 189, 189)" stroke-width="1px" opacity="0.25"></line><line x1="38.04086538461539" y1="0" x2="38.04086538461539" y2="177" fill="rgb(0, 0, 0)" stroke="rgb(189, 189, 189)" stroke-width="1px" opacity="0.25"></line><line x1="57.06129807692308" y1="0" x2="57.06129807692308" y2="177" fill="rgb(0, 0, 0)" stroke="rgb(189, 189, 189)" stroke-width="1px" opacity="0.25"></line><line x1="76.08173076923077" y1="0" x2="76.08173076923077" y2="177" fill="rgb(0, 0, 0)" stroke="rgb(189, 189, 189)" stroke-width="1px" opacity="0.25"></line><line x1="95.10216346153847" y1="0" x2="95.10216346153847" y2="177" fill="rgb(0, 0, 0)" stroke="rgb(189, 189, 189)" stroke-width="1px" opacity="0.25"></line><line x1="114.12259615384616" y1="0" x2="114.12259615384616" y2="177" fill="rgb(0, 0, 0)" stroke="rgb(189, 189, 189)" stroke-width="1px" opacity="0.25"></line><line x1="133.14302884615384" y1="0" x2="133.14302884615384" y2="177" fill="rgb(0, 0, 0)" stroke="rgb(189, 189, 189)" stroke-width="1px" opacity="0.25"></line><line x1="152.16346153846155" y1="0" x2="152.16346153846155" y2="177" fill="rgb(0, 0, 0)" stroke="rgb(189, 189, 189)" stroke-width="1px" opacity="0.25"></line><line x1="171.18389423076923" y1="0" x2="171.18389423076923" y2="177" fill="rgb(0, 0, 0)" stroke="rgb(189, 189, 189)" stroke-width="1px" opacity="0.25"></line><line x1="190.20432692307693" y1="0" x2="190.20432692307693" y2="177" fill="rgb(0, 0, 0)" stroke="rgb(189, 189, 189)" stroke-width="1px" opacity="0.25"></line><line x1="209.2247596153846" y1="0" x2="209.2247596153846" y2="177" fill="rgb(0, 0, 0)" stroke="rgb(189, 189, 189)" stroke-width="1px" opacity="0.25"></line><line x1="228.24519230769232" y1="0" x2="228.24519230769232" y2="177" fill="rgb(0, 0, 0)" stroke="rgb(189, 189, 189)" stroke-width="1px" opacity="0.25"></line><line x1="247.265625" y1="0" x2="247.265625" y2="177" fill="rgb(0, 0, 0)" stroke="rgb(189, 189, 189)" stroke-width="1px" opacity="0.25"></line></g><g><line x1="0" y1="177" x2="247.265625" y2="177" fill="rgb(0, 0, 0)" stroke="rgb(189, 189, 189)" stroke-width="1px" opacity="0.25"></line><line x1="0" y1="154.87500000000006" x2="247.265625" y2="154.87500000000006" fill="rgb(0, 0, 0)" stroke="rgb(189, 189, 189)" stroke-width="1px" opacity="0.25"></line><line x1="0" y1="132.75" x2="247.265625" y2="132.75" fill="rgb(0, 0, 0)" stroke="rgb(189, 189, 189)" stroke-width="1px" opacity="0.25"></line><line x1="0" y1="110.62500000000006" x2="247.265625" y2="110.62500000000006" fill="rgb(0, 0, 0)" stroke="rgb(189, 189, 189)" stroke-width="1px" opacity="0.25"></line><line x1="0" y1="88.5" x2="247.265625" y2="88.5" fill="rgb(0, 0, 0)" stroke="rgb(189, 189, 189)" stroke-width="1px" opacity="0.25"></line><line x1="0" y1="66.37500000000006" x2="247.265625" y2="66.37500000000006" fill="rgb(0, 0, 0)" stroke="rgb(189, 189, 189)" stroke-width="1px" opacity="0.25"></line><line x1="0" y1="44.25" x2="247.265625" y2="44.25" fill="rgb(0, 0, 0)" stroke="rgb(189, 189, 189)" stroke-width="1px" opacity="0.25"></line><line x1="0" y1="22.12500000000006" x2="247.265625" y2="22.12500000000006" fill="rgb(0, 0, 0)" stroke="rgb(189, 189, 189)" stroke-width="1px" opacity="0.25"></line><line x1="0" y1="0" x2="247.265625" y2="0" fill="rgb(0, 0, 0)" stroke="rgb(189, 189, 189)" stroke-width="1px" opacity="0.25"></line></g></g></g><g><g><line x1="0" y1="1017.7500000000001" x2="247.265625" y2="1017.7500000000001" fill="rgb(0, 0, 0)" stroke="rgb(153, 153, 153)" stroke-width="1.5px"></line></g></g><g><g><line x1="19.020432692307693" y1="0" x2="19.020432692307693" y2="177" fill="rgb(0, 0, 0)" stroke="rgb(153, 153, 153)" stroke-width="1.5px"></line></g></g><g><g><g><g><g><path stroke="rgb(255, 112, 67)" stroke-width="2px" d="M190.48963341346152,201.23828701391082L190.58473557692307,124.52463491690058L190.6798377403846,79.46688223538067L190.77493990384613,52.86151009864807L190.8700420673077,37.13824093379595L190.96514423076925,27.877340705677355L191.06024639423077,22.470099734937236L191.15534855769232,19.366639331526695L191.25045072115384,17.642489882739277L191.3455528846154,16.744914642226153L191.44065504807693,16.342937404747982L191.53575721153845,16.23824271687879L191.630859375,16.311926786823015L191.72596153846152,16.492650863094724L191.82106370192307,16.737672863762047L191.9161658653846,17.021298966579092L192.01126802884616,17.328113619349455L192.1063701923077,17.64891907997911L192.20147235576923,17.978145101024026L192.29657451923077,18.312475190505086L192.39167668269232,18.64989361866878L192.48677884615384,18.98924240872138L192.5818810096154,19.329775226828772L192.67698317307693,19.67104425155392L192.77208533653845,20.012832290835902L192.8671875,20.35495750774398L192.96228966346152,20.69733655223574L193.05739182692307,21.039893654512426L193.1524939903846,21.38260910785126L193.24759615384616,21.725471087175684L193.3426983173077,22.068472496812333L193.43780048076923,22.41158332209164L193.53290264423077,22.7548113108757L193.62800480769232,23.0981611117461L193.72310697115384,23.441609756880567L193.8182091346154,23.7851949793166L193.9133112980769,24.12886214817744L194.00841346153845,24.472655755589887L194.103515625,24.816550983038784L194.19861778846152,25.160558696299194L194.29371995192307,25.504659657941932L194.38882211538464,25.848868082397615L194.48392427884616,26.19319249832299L194.5790264423077,26.53761226602113L194.67412860576923,26.8821407585641L194.76923076923077,27.22678599979393L194.86433293269232,27.571552804015834L194.95943509615384,27.916418302923624L195.0545372596154,28.26139453242267L195.1496394230769,28.60646295716653L195.24474158653845,28.951638212837317L195.33984375,29.29692908084405L195.43494591346152,29.642315073142345L195.53004807692307,29.987809653795587L195.62515024038464,30.33342090124159L195.72025240384616,30.67912790565322L195.8153545673077,31.024943878024033L195.91045673076923,31.37085098806058L196.00555889423077,31.71686429447631L196.10066105769232,32.06299283249936L196.19576322115384,32.40924202326688L196.2908653846154,32.75558936257122L196.3859675480769,33.102021347887195L196.48106971153845,33.44858139148016L196.576171875,33.795244026929396L196.67127403846152,34.14199397438221L196.7663762019231,34.48884782281704L196.8614783653846,34.835815525621165L196.95658052884616,35.182877297936805L197.0516826923077,35.53004702573915L197.14678485576923,35.877333040613514L197.24188701923077,36.22471458462092L197.33698918269232,36.5722049598882L197.43209134615384,36.919786390801264L197.5271935096154,37.26747396888174L197.6222956730769,37.61527674904247L197.71739783653845,37.963174407341526L197.8125,38.311180506303344L197.90760216346152,38.65927742655289L198.0027043269231,39.00748035335473L198.0978064903846,39.35579839786803L198.19290865384616,39.704211269898295L198.2880108173077,40.052732552218465L198.38311298076923,40.401344637602485L198.47821514423077,40.750062718604816L198.5733173076923,41.09887015386805L198.66841947115384,41.44778271546781L198.7635216346154,41.79680986664927L198.8586237980769,42.14593152846981L198.95372596153845,42.49513565356376L199.048828125,42.84446652729162L199.14393028846155,43.193873450199774L199.2390324519231,43.543403273285946L199.3341346153846,43.89303259336885L199.42923677884616,44.242747368539824L199.5243389423077,44.59256493054362L199.61944110576923,44.942495678426916L199.71454326923077,45.292520094727855L199.8096454326923,45.64265222585938L199.90474759615384,45.992874742779144L199.9998497596154,46.343177248061785L200.0949519230769,46.69360501703202L200.19005408653845,47.04413370110475L200.28515625,47.39474869112901L200.38025841346155,47.74546697850402L200.4753605769231,48.09627300117951L200.5704627403846,48.44718317881511L200.66556490384616,48.79820736320683L200.7606670673077,49.14929995165203L200.85576923076923,49.50051085319936L200.95087139423077,49.851818499497696L201.0459735576923,50.20320994953671L201.14107572115384,50.55472895249016L201.2361778846154,50.9063244871921L201.3312800480769,51.25801745472292L201.42638221153845,51.6098203957313L201.521484375,51.96171507771588L201.61658653846155,52.31369056117633L201.7116887019231,52.665766039302156L201.8067908653846,53.01795302800701L201.90189302884616,53.37023267994921L201.9969951923077,53.722593686723904L202.09209735576923,54.07505502017802L202.18719951923077,54.42762806341964L202.2823016826923,54.78029388942374L202.37740384615384,55.13304114197523L202.4725060096154,55.48588876423504L202.5676081730769,55.83884812209993L202.66271033653845,56.191900278217744L202.7578125,56.54503387017711L202.85291466346155,56.89826783742152L202.9480168269231,57.251587786726716L203.0431189903846,57.605010839048404L203.13822115384616,57.958521510070085L203.2333233173077,58.312136266091414L203.32842548076923,58.66583923000256L203.42352764423077,59.019646632427516L203.5186298076923,59.373542454850764L203.61373197115384,59.72754284305285L203.7088341346154,60.08163172761216L203.8039362980769,60.43579946687591L203.89903846153848,60.79006603274223L203.994140625,61.14441765145983L204.08924278846155,61.49887181566818L204.1843449519231,61.853413264061125L204.2794471153846,62.20805859674458L204.37454927884616,62.5627920168922L204.46965144230768,62.917629803298254L204.56475360576923,63.272555966349515L204.65985576923077,63.62756091227768L204.7549579326923,63.98266464171185L204.85006009615384,64.33785339813983L204.9451622596154,64.69314468454388L205.0402644230769,65.0485232458235L205.13536658653848,65.40400568580824L205.23046875,65.75955045301633L205.32557091346155,66.11520988722803L205.4206730769231,66.47096387853199L205.5157752403846,66.82680036098122L205.61087740384616,67.18271209500753L205.70597956730768,67.53872049376014L205.80108173076923,67.89483840512834L205.89618389423077,68.25102202406583L205.9912860576923,68.60732233821489L206.08638822115384,68.96369266949071L206.18149038461536,69.32015652482274L206.27659254807693,69.6767022514783L206.37169471153848,70.03334861470792L206.466796875,70.39008111677184L206.56189903846155,70.74691681591639L206.6570012019231,71.10384019019925L206.7521033653846,71.460841926455L206.84720552884616,71.8179164367844L206.94230769230768,72.17508612533805L207.03740985576923,72.53236443460592L207.13251201923077,72.88973367319255L207.2276141826923,73.24718322626009L207.32271634615384,73.60470672490652L207.41781850961536,73.96232610467983L207.51292067307693,74.32002877001939L207.60802283653848,74.67783292047855L207.703125,75.03572371889946L207.79822716346155,75.39369226298732L207.8933293269231,75.75175896825532L207.9884314903846,76.1099103271213L208.08353365384616,76.46813823503602L208.17863581730768,76.82646358616005L208.27373798076923,77.18487316009954L208.36884014423077,77.54335902461821L208.4639423076923,77.90194217726432L208.55904447115384,78.26060945967679L208.6541466346154,78.61935297683918L208.74924879807693,78.97819374863121L208.84435096153848,79.33711863009108L208.939453125,79.69611973424173L209.03455528846155,80.05521808578658L209.12965745192307,80.41440054265797L209.2247596153846,80.77365921961535L209.31986177884616,81.13301514240406L209.41496394230768,81.49245516958167L209.51006610576923,81.85197141628235L209.60516826923077,82.21155915158702L209.7002704326923,82.57124129383399L209.79537259615384,82.93100583713617L209.8904747596154,83.29087133485137L209.98557692307693,83.65082316210456L210.08067908653848,84.0108525439703L210.17578125,84.37095421549371L210.27088341346155,84.73115077459155L210.36598557692307,85.09143002312382L210.4610877403846,85.45178464220689L210.55618990384616,85.8122359974004L210.65129206730768,86.17274539426009L210.74639423076923,86.53334112989923L210.84149639423075,86.89404018258611L210.9365985576923,87.25482698239162L211.03170072115387,87.61566643046837L211.1268028846154,87.9766147381775L211.22190504807693,88.33762836166625L211.31700721153848,88.69873268840256L211.412109375,89.05991719397743L211.50721153846155,89.42117556374546L211.60231370192307,89.78252976580919L211.6974158653846,90.14396722414024L211.79251802884616,90.50548039312169L211.88762019230768,90.86706474538337L211.98272235576923,91.22871756450304L212.07782451923075,91.59046297751756L212.1729266826923,91.95228970375896L212.26802884615387,92.31421673171636L212.3631310096154,92.67620394070322L212.45823317307693,93.0382787720878L212.55333533653848,93.40043193380097L212.6484375,93.76265785060117L212.74353966346155,94.1249789342335L212.83864182692307,94.48738287485516L212.9337439903846,94.84986228656014L213.02884615384616,95.21241273780537L213.12394831730768,95.57503156966465L213.21905048076923,95.93774294367199L213.31415264423075,96.30053559985838L213.40925480769232,96.66340278224217L213.50435697115387,97.02634043723423L213.5994591346154,97.38937188957111L213.69456129807693,97.75245962031518L213.78966346153845,98.11563263188323L213.884765625,98.47888256883556L213.97986778846155,98.84223017479852L214.07496995192307,99.2056363821678L214.1700721153846,99.56912926416076L214.26517427884616,99.93269990781802L214.36027644230768,100.29634296536362L214.45537860576923,100.66005522813236L214.55048076923075,101.0238605278147L214.64558293269232,101.38774740653517L214.74068509615387,101.75168323267866L214.8357872596154,102.11569994105585L214.93088942307693,102.47981669255304L215.02599158653845,102.84399346992235L215.12109375,103.20825777659496L215.21619591346155,103.57260035773919L215.31129807692307,103.93698990356664L215.4064002403846,104.3014848988738L215.50150240384613,104.66604316386874L215.59660456730768,105.03066514756622L215.69170673076923,105.39537687626533L215.78680889423077,105.76016820885539L215.88191105769232,106.12503306066988L215.97701322115387,106.48996778090897L216.0721153846154,106.8549701790928L216.16721754807693,107.22003894093332L216.26231971153845,107.585199034748L216.357421875,107.95043968463693L216.45252403846155,108.31572866817044L216.54762620192307,108.68109816567066L216.6427283653846,109.04654172844096L216.73783052884613,109.41208124415289L216.83293269230768,109.77767833163007L216.92803485576923,110.14336147594625L217.02313701923077,110.50909625436584L217.11823918269232,110.87491352702743L217.21334134615387,111.24080605312406L217.3084435096154,111.60676948817172L217.40354567307693,111.97280122547997L217.49864783653845,112.33889970103442L217.59375,112.70508973331658L217.68885216346155,113.07133469963546L217.78395432692307,113.4376641401561L217.8790564903846,113.80404426519799L217.97415865384613,114.17050631473238L218.06926081730768,114.53704327585235L218.16436298076925,114.90365094081348L218.25946514423077,115.2703267849694L218.35456730769232,115.63706929353215L218.44966947115384,116.00390331451872L218.5447716346154,116.37079224295975L218.63987379807693,116.73776562965317L218.73497596153845,117.10478969129832L218.830078125,117.4718956716942L218.92518028846155,117.83905080334054L219.02028245192307,118.2062869395171L219.1153846153846,118.57359743530178L219.21048677884613,118.94097830374132L219.30558894230768,119.30842715266357L219.40069110576925,119.6759425467655L219.49579326923077,120.04354938175526L219.59089543269232,120.41121108127756L219.68599759615384,120.7789314564095L219.7810997596154,121.14671279379706L219.87620192307693,121.5145822223179L219.97130408653845,121.88250450551855L220.06640625,122.25051001530723L220.16150841346152,122.61859121793854L220.25661057692307,122.98671783627555L220.3517127403846,123.35492321781574L220.44681490384613,123.72320161416796L220.5419170673077,124.09152381940731L220.63701923076925,124.45992382375894L220.73212139423077,124.82839626446786L220.82722355769232,125.19693792388092L220.92232572115384,125.56554687140657L221.0174278846154,125.93422194868972L221.11253004807693,126.30296246071737L221.20763221153845,126.6717679904817L221.302734375,127.04063828777788L221.39783653846152,127.40957320248316L221.49293870192307,127.77857264452389L221.5880408653846,128.14763655985567L221.68314302884613,128.5167649160523L221.7782451923077,128.88595769365753L221.87334735576925,129.25521488099807L221.96844951923077,129.6245622279596L222.06355168269232,129.99396367069377L222.15865384615384,130.36342332778153L222.2537560096154,130.73294367037136L222.34885817307693,131.1025261811523L222.44396033653845,131.472171749738L222.5390625,131.8418809098965L222.63416466346152,132.21167973877843L222.72926682692307,132.58153236889459L222.8243689903846,132.95144303664114L222.91947115384616,133.32141428385597L223.0145733173077,133.69144763564162L223.10967548076923,134.06154400705972L223.20477764423077,134.43170394714738L223.29987980769232,134.80192778532654L223.39498197115384,135.17221571925072L223.4900841346154,135.5425678675117L223.58518629807693,135.9129843012649L223.68028846153845,136.28346506320324L223.775390625,136.65401017894263L223.87049278846152,137.0245939069627L223.96559495192307,137.39525231613112L224.0606971153846,137.76598129087844L224.15579927884616,138.13675260497314L224.2509014423077,138.5076008364562L224.34600360576923,138.87852097526215L224.44110576923077,139.2494842584619L224.53620793269232,139.62052494207788L224.63131009615384,139.9916120659435L224.7264122596154,140.3627528108488L224.8215144230769,140.73397724215795L224.91661658653845,141.10525188530943L225.01171875,141.47658241245614L225.10682091346152,141.84797222688996L225.20192307692307,142.21942337058604L225.29702524038464,142.59093706872952L225.39212740384616,142.9625140564312L225.4872295673077,143.33412901786787L225.58233173076923,143.70581827732556L225.67743389423077,144.0775778724857L225.77253605769232,144.44937966906738L225.86763822115384,144.8212583002818L225.9627403846154,145.193183032276L226.0578425480769,145.56516118162799L226.15294471153845,145.93719713828446L226.248046875,146.3092935362137L226.34314903846152,146.68145195579652L226.43825120192307,147.05367334526147L226.53335336538464,147.42595827354572L226.62845552884616,147.79828132512128L226.7235576923077,148.17067876445182L226.81865985576923,148.54312083643515L226.91376201923077,148.91564120179024L227.00886418269232,149.2882085431683L227.10396634615384,149.66082982705015L227.1990685096154,150.03350923332408L227.2941706730769,150.4062235130334L227.38927283653845,150.77901023058382L227.484375,151.1518661677288L227.57947716346152,151.5247636366306L227.6745793269231,151.8977117814764L227.7696814903846,152.27071608877858L227.86478365384616,152.6437798504445L227.9598858173077,153.01690504161866L228.05498798076923,153.39009284738773L228.15009014423077,153.76331822191378L228.24519230769232,154.13661765147384" style="fill: none;" fill="none"></path></g></g></g></g><g opacity="0.2"><g><g><g><path stroke="rgb(255, 112, 67)" stroke-width="2px" d="M19.305739182692307,977.9249985913558L190.29942908653845,11.65580721956216L190.39453125,11.99554059805818L190.48963341346152,12.335402761003973L190.58473557692307,12.675393708399536L190.6798377403846,13.015449048019985L190.77493990384613,13.355633172090204L190.8700420673077,13.695946080610195L190.96514423076925,14.036387773579957L191.06024639423077,14.376893858774604L191.15534855769232,14.717528728419023L191.25045072115384,15.058292382513212L191.3455528846154,15.399184821057172L191.44065504807693,15.740141651826018L191.53575721153845,16.081227267044635L191.630859375,16.422441666713024L191.72596153846152,16.763720458606297L191.82106370192307,17.105192427174227L191.9161658653846,17.446728787967043L192.01126802884616,17.788329540984744L192.1063701923077,18.130123470677102L192.20147235576923,18.471981792594345L192.29657451923077,18.81396889896136L192.39167668269232,19.15602039755326L192.48677884615384,19.498265072819816L192.5818810096154,19.840574140311258L192.67698317307693,20.182947600027585L192.77208533653845,20.52551423641857L192.8671875,20.86814526503444L192.96228966346152,21.21090507810008L193.05739182692307,21.553729283390606L193.1524939903846,21.896682273130903L193.24759615384616,22.23976404732097L193.3426983173077,22.58297460596081L193.43780048076923,22.926249556825535L193.53290264423077,23.26965329214003L193.62800480769232,23.613185811904298L193.72310697115384,23.95678272389345L193.8182091346154,24.30057281255726L193.9133112980769,24.64436290122107L194.00841346153845,24.988346166559534L194.103515625,25.332393824122885L194.19861778846152,25.676570266136007L194.29371995192307,26.020811100374015L194.38882211538464,26.365180719061794L194.48392427884616,26.709679122199343L194.5790264423077,27.05424191756178L194.67412860576923,27.398933497373985L194.76923076923077,27.743753861635962L194.86433293269232,28.08870301034771L194.95943509615384,28.433716551284345L195.0545372596154,28.77885887667075L195.1496394230769,29.12406559428204L195.24474158653845,29.469401096343102L195.33984375,29.814865382853935L195.43494591346152,30.160394061589653L195.53004807692307,30.506051524775142L195.62515024038464,30.851837772410402L195.72025240384616,31.197688412270548L195.8153545673077,31.543667836580465L195.91045673076923,31.889711653115267L196.00555889423077,32.235884254099844L196.10066105769232,32.58218563953419L196.19576322115384,32.928615809418304L196.2908653846154,33.275110371527305L196.3859675480769,33.62166932586119L196.48106971153845,33.968421456869734L196.576171875,34.31523798010316L196.67127403846152,34.66211889556148L196.7663762019231,35.00912859546956L196.8614783653846,35.35626707982742L196.95658052884616,35.70346995641016L197.0516826923077,36.05080161744267L197.14678485576923,36.39826206292496L197.24188701923077,36.745786900632126L197.33698918269232,37.09344052278907L197.43209134615384,37.44115853717089L197.5271935096154,37.78900533600249L197.6222956730769,38.13698091928386L197.71739783653845,38.48502089479011L197.8125,38.833189654746135L197.90760216346152,39.181422806927046L198.0027043269231,39.52978474355773L198.0978064903846,39.87827546463818L198.19290865384616,40.22683057794352L198.2880108173077,40.575514475698625L198.38311298076923,40.92426276567862L198.47821514423077,41.273139840108385L198.5733173076923,41.622081306763036L198.66841947115384,41.97115155786746L198.7635216346154,42.32035059342165L198.8586237980769,42.66961402120073L198.95372596153845,43.01894184120469L199.048828125,43.368462837883314L199.14393028846155,43.717983834561934L199.2390324519231,44.06769800791521L199.3341346153846,44.417476573493374L199.42923677884616,44.76731953129642L199.5243389423077,45.11729127354924L199.61944110576923,45.46739180025183L199.71454326923077,45.81755671917931L199.8096454326923,46.167850422556555L199.90474759615384,46.51820851815869L199.9998497596154,46.868631005985705L200.0949519230769,47.21924667048738L200.19005408653845,47.56992672721394L200.28515625,47.920671176165385L200.38025841346155,48.2715444095666L200.4753605769231,48.622482035192704L200.5704627403846,48.97354844526858L200.66556490384616,49.32474363979422L200.7606670673077,49.675938834319865L200.85576923076923,50.027327205520166L200.95087139423077,50.37877996894535L201.0459735576923,50.730297124595424L201.14107572115384,51.08200745692015L201.2361778846154,51.43371778924488L201.3312800480769,51.78555690601938L201.42638221153845,52.13752480724365L201.521484375,52.48955710069281L201.61658653846155,52.84165378636685L201.7116887019231,53.19387925649066L201.8067908653846,53.546233511064244L201.90189302884616,53.89865215786271L201.9969951923077,54.25113519688607L202.09209735576923,54.603747020359194L202.18719951923077,54.95648762828209L202.2823016826923,55.30929262842987L202.37740384615384,55.66216202080254L202.4725060096154,56.01516019762498L202.5676081730769,56.36828715889719L202.66271033653845,56.721478512394285L202.7578125,57.074734258116266L202.85291466346155,57.42811878828802L202.9480168269231,57.781567710684655L203.0431189903846,58.135145417531064L203.13822115384616,58.48878751660236L203.2333233173077,58.84255840012342L203.32842548076923,59.19639367586937L203.42352764423077,59.550357736065095L203.5186298076923,59.9043861884857L203.61373197115384,60.25854342535608L203.7088341346154,60.612765054451344L203.8039362980769,60.967051075771494L203.89903846153848,61.321465881541414L203.994140625,61.67594507953622L204.08924278846155,62.0305530619808L204.1843449519231,62.38522543665026L204.2794471153846,62.74002659576949L204.37454927884616,63.09489214711361L204.46965144230768,63.4498864829075L204.56475360576923,63.80494521092628L204.65985576923077,64.16006833116994L204.7549579326923,64.51532023586337L204.85006009615384,64.87063653278169L204.9451622596154,65.22608161414978L205.0402644230769,65.58159108774275L205.13536658653848,65.9372293457855L205.23046875,66.29286760382824L205.32557091346155,66.64869903854564L205.4206730769231,67.00459486548793L205.5157752403846,67.3605550846551L205.61087740384616,67.71657969604716L205.70597956730768,68.07273309188899L205.80108173076923,68.42901527218059L205.89618389423077,68.7852974524722L205.9912860576923,69.14177280943845L206.08638822115384,69.49824816640471L206.18149038461536,69.85485230782074L206.27659254807693,70.21152084146165L206.37169471153848,70.56831815955233L206.466796875,70.9251798698679L206.56189903846155,71.28217036463325L206.6570012019231,71.63922525162347L206.7521033653846,71.99634453083858L206.84720552884616,72.35352820227858L206.94230769230768,72.71084065816835L207.03740985576923,73.06828189850789L207.13251201923077,73.42578753107232L207.2276141826923,73.78335755586163L207.32271634615384,74.14099197287582L207.41781850961536,74.49875517433979L207.51292067307693,74.85658276802864L207.60802283653848,75.21453914616727L207.703125,75.57255991653078L207.79822716346155,75.93064507911917L207.8933293269231,76.28885902615734L207.9884314903846,76.64713736542039L208.08353365384616,77.00548009690833L208.17863581730768,77.36395161284604L208.27373798076923,77.72248752100863L208.36884014423077,78.08108782139611L208.4639423076923,78.43981690623336L208.55904447115384,78.7986103832955L208.6541466346154,79.15746825258252L208.74924879807693,79.51645490631931L208.84435096153848,79.87550595228099L208.939453125,80.23462139046755L209.03455528846155,80.59386561310389L209.12965745192307,80.9531742279651L209.2247596153846,81.31254723505121L209.31986177884616,81.67204902658709L209.41496394230768,82.03161521034785L209.51006610576923,82.3912457863335L209.60516826923077,82.75094075454403L209.7002704326923,83.11076450720434L209.79537259615384,83.47065265208953L209.8904747596154,83.83066958142449L209.98557692307693,84.19075090298433L210.08067908653848,84.55089661676907L210.17578125,84.91110672277868L210.27088341346155,85.27144561323807L210.36598557692307,85.63184889592235L210.4610877403846,85.9923165708315L210.55618990384616,86.35291303019044L210.65129206730768,86.71350948954937L210.74639423076923,87.07423473335807L210.84149639423075,87.43508876161654L210.9365985576923,87.7960071820999L211.03170072115387,88.15692560258326L211.1268028846154,88.51803719974127L211.22190504807693,88.87914879689929L211.31700721153848,89.24038917850707L211.412109375,89.60169395233974L211.50721153846155,89.9630631183973L211.60231370192307,90.32456106890463L211.6974158653846,90.68612341163684L211.79251802884616,91.04775014659394L211.88762019230768,91.40944127377593L211.98272235576923,91.7711967931828L212.07782451923075,92.13308109703944L212.1729266826923,92.49502979312096L212.26802884615387,92.85710727365226L212.3631310096154,93.21918475418356L212.45823317307693,93.58139101916463L212.55333533653848,93.94366167637058L212.6484375,94.30599672580142L212.74353966346155,94.66846055968203L212.83864182692307,95.03098878578753L212.9337439903846,95.39358140411791L213.02884615384616,95.75623841467318L213.12394831730768,96.11895981745333L213.21905048076923,96.48181000468325L213.31415264423075,96.84472458413806L213.40925480769232,97.20770355581776L213.50435697115387,97.57074691972234L213.5994591346154,97.93391906807669L213.69456129807693,98.29709121643104L213.78966346153845,98.66039214923516L213.884765625,99.02375747426417L213.97986778846155,99.38725158374295L214.07496995192307,99.75074569322173L214.1700721153846,100.11436858715028L214.26517427884616,100.47805587330372L214.36027644230768,100.84180755168204L214.45537860576923,101.20562362228524L214.55048076923075,101.56956847733822L214.64558293269232,101.93357772461609L214.74068509615387,102.29758697189395L214.8357872596154,102.66172500362158L214.93088942307693,103.02599181979899L215.02599158653845,103.3902586359764L215.12109375,103.75465423660357L215.21619591346155,104.11911422945563L215.31129807692307,104.4835742223077L215.4064002403846,104.84822739183441L215.50150240384613,105.21288056136113L215.59660456730768,105.57759812311274L215.69170673076923,105.94244446931411L215.78680889423077,106.30735520774037L215.88191105769232,106.67233033839152L215.97701322115387,107.03736986126755L216.0721153846154,107.40247377636847L216.16721754807693,107.76764208369427L216.26231971153845,108.13293917546984L216.357421875,108.4983006594703L216.45252403846155,108.86366214347076L216.54762620192307,109.22915241192099L216.6427283653846,109.59470707259611L216.73783052884613,109.960390517721L216.83293269230768,110.32607396284588L216.92803485576923,110.69188619242054L217.02313701923077,111.0576984219952L217.11823918269232,111.42363943601963L217.21334134615387,111.78964484226894L217.3084435096154,112.15571464074314L217.40354567307693,112.52184883144223L217.49864783653845,112.8880474143662L217.59375,113.25437478173994L217.68885216346155,113.62070214911368L217.78395432692307,113.9871583009372L217.8790564903846,114.35361445276071L217.97415865384613,114.720199389034L218.06926081730768,115.08684871753216L218.16436298076925,115.45356243825522L218.25946514423077,115.82034055120316L218.35456730769232,116.18718305637599L218.44966947115384,116.55415434599858L218.5447716346154,116.92112563562118L218.63987379807693,117.28822570969355L218.73497596153845,117.65532578376592L218.830078125,118.02255464228806L218.92518028846155,118.3897835008102L219.02028245192307,118.7571411437821L219.1153846153846,119.1245631789789L219.21048677884613,119.49204960640058L219.30558894230768,119.85960042604715L219.40069110576925,120.2272156379186L219.49579326923077,120.59495963423983L219.59089543269232,120.96270363056105L219.68599759615384,121.33051201910716L219.7810997596154,121.69838479987816L219.87620192307693,122.06638636509892L219.97130408653845,122.43438793031969L220.06640625,122.80251827999022L220.16150841346152,123.17071302188565L220.25661057692307,123.53890776378107L220.3517127403846,123.90723129012626L220.44681490384613,124.27561920869634L220.5419170673077,124.64400712726642L220.63701923076925,125.01252383028627L220.73212139423077,125.381104925531L220.82722355769232,125.74975041300063L220.92232572115384,126.11846029269513L221.0174278846154,126.48723456461452L221.11253004807693,126.8560732287588L221.20763221153845,127.22497628512797L221.302734375,127.59394373372201L221.39783653846152,127.96297557454095L221.49293870192307,128.33207180758475L221.5880408653846,128.70123243285346L221.68314302884613,129.07045745034705L221.7782451923077,129.43974686006553L221.87334735576925,129.8091006620089L221.96844951923077,130.17858324840202L222.06355168269232,130.54806583479515L222.15865384615384,130.91761281341317L222.2537560096154,131.28722418425608L222.34885817307693,131.65689994732386L222.44396033653845,132.02664010261654L222.5390625,132.3964446501341L222.63416466346152,132.76637798210143L222.72926682692307,133.13631131406876L222.8243689903846,133.50630903826098L222.91947115384616,133.87637115467808L223.0145733173077,134.24649766332007L223.10967548076923,134.61668856418694L223.20477764423077,134.9869438572787L223.29987980769232,135.35726354259535L223.39498197115384,135.72764762013688L223.4900841346154,136.0980960899033L223.58518629807693,136.4686089518946L223.68028846153845,136.83918620611078L223.775390625,137.20982785255185L223.87049278846152,137.58046949899293L223.96559495192307,137.95123992988377L224.0606971153846,138.3220747529995L224.15579927884616,138.69290957611523L224.2509014423077,139.06387318368073L224.34600360576923,139.4349011834711L224.44110576923077,139.8059291832615L224.53620793269232,140.17708596750165L224.63131009615384,140.5482427517418L224.7264122596154,140.91946392820685L224.8215144230769,141.29081388912167L224.91661658653845,141.66216385003648L225.01171875,142.03357820317618L225.10682091346152,142.40505694854076L225.20192307692307,142.77660008613023L225.29702524038464,143.14820761594459L225.39212740384616,143.51987953798383L225.4872295673077,143.89155146002307L225.58233173076923,144.26335216651208L225.67743389423077,144.63521726522598L225.77253605769232,145.00708236393987L225.86763822115384,145.37907624710354L225.9627403846154,145.7510701302672L226.0578425480769,146.12312840565576L226.15294471153845,146.4952510732692L226.248046875,146.86743813310753L226.34314903846152,147.23968958517074L226.43825120192307,147.61200542945883L226.53335336538464,147.9843856659718L226.62845552884616,148.3567659024848L226.7235576923077,148.72927492344755L226.81865985576923,149.1017839444103L226.91376201923077,149.47442174982282L227.00886418269232,149.84705955523535L227.10396634615384,150.21976175287276L227.1990685096154,150.59252834273505L227.2941706730769,150.96529493259735L227.38927283653845,151.3381903069094L227.484375,151.71115007344636L227.57947716346152,152.0841098399833L227.6745793269231,152.45713399874515L227.7696814903846,152.83022254973187L227.86478365384616,153.20337549294348L227.9598858173077,153.57659282837997L228.05498798076923,153.94987455604135L228.15009014423077,154.32315628370273L228.24519230769232,154.69656679581388" style="fill: none;" fill="none"></path></g></g></g></g></g></g><g transform="translate(82, 177)" clip-path="url(#clip_1)"><clipPath id="clip_1"><rect width="247" height="23"></rect></clipPath><g><g><line x1="0" y1="0" x2="0" y2="5" style="visibility: inherit;" fill="rgb(0, 0, 0)" stroke="rgb(204, 204, 204)" stroke-width="1px"></line><line x1="19.020432692307693" y1="0" x2="19.020432692307693" y2="5" style="visibility: inherit;" fill="rgb(0, 0, 0)" stroke="rgb(204, 204, 204)" stroke-width="1px"></line><line x1="38.04086538461539" y1="0" x2="38.04086538461539" y2="5" style="visibility: inherit;" fill="rgb(0, 0, 0)" stroke="rgb(204, 204, 204)" stroke-width="1px"></line><line x1="57.06129807692308" y1="0" x2="57.06129807692308" y2="5" style="visibility: inherit;" fill="rgb(0, 0, 0)" stroke="rgb(204, 204, 204)" stroke-width="1px"></line><line x1="76.08173076923077" y1="0" x2="76.08173076923077" y2="5" style="visibility: inherit;" fill="rgb(0, 0, 0)" stroke="rgb(204, 204, 204)" stroke-width="1px"></line><line x1="95.10216346153847" y1="0" x2="95.10216346153847" y2="5" style="visibility: inherit;" fill="rgb(0, 0, 0)" stroke="rgb(204, 204, 204)" stroke-width="1px"></line><line x1="114.12259615384616" y1="0" x2="114.12259615384616" y2="5" style="visibility: inherit;" fill="rgb(0, 0, 0)" stroke="rgb(204, 204, 204)" stroke-width="1px"></line><line x1="133.14302884615384" y1="0" x2="133.14302884615384" y2="5" style="visibility: inherit;" fill="rgb(0, 0, 0)" stroke="rgb(204, 204, 204)" stroke-width="1px"></line><line x1="152.16346153846155" y1="0" x2="152.16346153846155" y2="5" style="visibility: inherit;" fill="rgb(0, 0, 0)" stroke="rgb(204, 204, 204)" stroke-width="1px"></line><line x1="171.18389423076923" y1="0" x2="171.18389423076923" y2="5" style="visibility: inherit;" fill="rgb(0, 0, 0)" stroke="rgb(204, 204, 204)" stroke-width="1px"></line><line x1="190.20432692307693" y1="0" x2="190.20432692307693" y2="5" style="visibility: inherit;" fill="rgb(0, 0, 0)" stroke="rgb(204, 204, 204)" stroke-width="1px"></line><line x1="209.2247596153846" y1="0" x2="209.2247596153846" y2="5" style="visibility: inherit;" fill="rgb(0, 0, 0)" stroke="rgb(204, 204, 204)" stroke-width="1px"></line><line x1="228.24519230769232" y1="0" x2="228.24519230769232" y2="5" style="visibility: inherit;" fill="rgb(0, 0, 0)" stroke="rgb(204, 204, 204)" stroke-width="1px"></line><line x1="247.265625" y1="0" x2="247.265625" y2="5" style="visibility: inherit;" fill="rgb(0, 0, 0)" stroke="rgb(204, 204, 204)" stroke-width="1px"></line></g><g transform="translate(0, 8)"><text x="0" y="0" dx="0em" dy="0.95em" style="text-anchor: middle; visibility: hidden; font-family: Roboto, sans-serif; font-size: 12px; font-weight: 200;" fill="rgb(255, 255, 255)" stroke="none" stroke-width="1px">-200</text><text x="19.020432692307693" y="0" dx="0em" dy="0.95em" style="text-anchor: middle; visibility: inherit; font-family: Roboto, sans-serif; font-size: 12px; font-weight: 200;" fill="rgb(255, 255, 255)" stroke="none" stroke-width="1px">0</text><text x="38.04086538461539" y="0" dx="0em" dy="0.95em" style="text-anchor: middle; visibility: hidden; font-family: Roboto, sans-serif; font-size: 12px; font-weight: 200;" fill="rgb(255, 255, 255)" stroke="none" stroke-width="1px">200</text><text x="57.06129807692308" y="0" dx="0em" dy="0.95em" style="text-anchor: middle; visibility: inherit; font-family: Roboto, sans-serif; font-size: 12px; font-weight: 200;" fill="rgb(255, 255, 255)" stroke="none" stroke-width="1px">400</text><text x="76.08173076923077" y="0" dx="0em" dy="0.95em" style="text-anchor: middle; visibility: hidden; font-family: Roboto, sans-serif; font-size: 12px; font-weight: 200;" fill="rgb(255, 255, 255)" stroke="none" stroke-width="1px">600</text><text x="95.10216346153847" y="0" dx="0em" dy="0.95em" style="text-anchor: middle; visibility: inherit; font-family: Roboto, sans-serif; font-size: 12px; font-weight: 200;" fill="rgb(255, 255, 255)" stroke="none" stroke-width="1px">800</text><text x="114.12259615384616" y="0" dx="0em" dy="0.95em" style="text-anchor: middle; visibility: hidden; font-family: Roboto, sans-serif; font-size: 12px; font-weight: 200;" fill="rgb(255, 255, 255)" stroke="none" stroke-width="1px">1k</text><text x="133.14302884615384" y="0" dx="0em" dy="0.95em" style="text-anchor: middle; visibility: inherit; font-family: Roboto, sans-serif; font-size: 12px; font-weight: 200;" fill="rgb(255, 255, 255)" stroke="none" stroke-width="1px">1.2k</text><text x="152.16346153846155" y="0" dx="0em" dy="0.95em" style="text-anchor: middle; visibility: hidden; font-family: Roboto, sans-serif; font-size: 12px; font-weight: 200;" fill="rgb(255, 255, 255)" stroke="none" stroke-width="1px">1.4k</text><text x="171.18389423076923" y="0" dx="0em" dy="0.95em" style="text-anchor: middle; visibility: inherit; font-family: Roboto, sans-serif; font-size: 12px; font-weight: 200;" fill="rgb(255, 255, 255)" stroke="none" stroke-width="1px">1.6k</text><text x="190.20432692307693" y="0" dx="0em" dy="0.95em" style="text-anchor: middle; visibility: hidden; font-family: Roboto, sans-serif; font-size: 12px; font-weight: 200;" fill="rgb(255, 255, 255)" stroke="none" stroke-width="1px">1.8k</text><text x="209.2247596153846" y="0" dx="0em" dy="0.95em" style="text-anchor: middle; visibility: inherit; font-family: Roboto, sans-serif; font-size: 12px; font-weight: 200;" fill="rgb(255, 255, 255)" stroke="none" stroke-width="1px">2k</text><text x="228.24519230769232" y="0" dx="0em" dy="0.95em" style="text-anchor: middle; visibility: hidden; font-family: Roboto, sans-serif; font-size: 12px; font-weight: 200;" fill="rgb(255, 255, 255)" stroke="none" stroke-width="1px">2.2k</text><text x="247.265625" y="0" dx="0em" dy="0.95em" style="text-anchor: middle; visibility: hidden; font-family: Roboto, sans-serif; font-size: 12px; font-weight: 200;" fill="rgb(255, 255, 255)" stroke="none" stroke-width="1px">2.4k</text></g><line x1="0" y1="0" x2="247.265625" y2="0" fill="rgb(0, 0, 0)" stroke="rgb(204, 204, 204)" stroke-width="1px"></line></g></g></g></g></svg>